<?xml version="1.0" encoding="UTF-8"?>
<svg version="1.1" xmlns="http://www.w3.org/2000/svg" width="3073" height="1494">
<path d="M0 0 C1.31700924 3.68244166 0.6690543 6.19234815 -0.328125 9.91796875 C-0.63218262 11.08207275 -0.93624023 12.24617676 -1.24951172 13.44555664 C-1.57967285 14.68039795 -1.90983398 15.91523926 -2.25 17.1875 C-14.19375379 63.35526928 -11.68816026 104.69369739 12.3359375 146.47265625 C13.75385798 149.08572255 13.75385798 149.08572255 16 150 C16.23203125 149.35675781 16.4640625 148.71351563 16.703125 148.05078125 C18.0930316 144.78115157 19.72620252 141.7342549 21.42724609 138.61865234 C44.47391165 96.2600891 41.7160235 52.76768349 29.60083008 7.38989258 C28.98465531 4.93896418 28.47578661 2.48165658 28 0 C28.66 0 29.32 0 30 0 C31.42602539 2.03417969 31.42602539 2.03417969 33.09765625 4.921875 C33.72542969 5.99566406 34.35320312 7.06945312 35 8.17578125 C35.50273438 9.04710693 35.50273438 9.04710693 36.015625 9.93603516 C37.80937804 13.04414734 39.62736693 16.13807498 41.44140625 19.234375 C41.81758087 19.8780603 42.19375549 20.52174561 42.58132935 21.18493652 C46.13334912 27.25410959 49.77701073 33.26530134 53.44180298 39.2668457 C61.00908464 51.66082004 68.44467092 64.12931024 75.82873535 76.63343811 C80.12504055 83.90785236 84.43717816 91.17286977 88.75 98.4375 C89.35944458 99.46426849 89.35944458 99.46426849 89.98120117 100.51177979 C94.75962138 108.56131885 99.55062591 116.60288574 104.375 124.625 C110.10670465 134.16065257 115.79658745 143.72014937 121.42382812 153.31787109 C122.43397184 155.03680523 123.44795121 156.7534945 124.46679688 158.46728516 C139.9729138 184.56074048 153.02681123 212.1337975 165 240 C165.2930603 240.6808667 165.58612061 241.3617334 165.88806152 242.06323242 C227.82482569 386.15022546 227.82482569 386.15022546 207 441 C201.71978835 453.86482866 195.2798161 465.83100335 187 477 C186.34064453 477.89041992 186.34064453 477.89041992 185.66796875 478.79882812 C176.04143946 491.65731898 165.0034959 503.07817443 153.6875 514.4375 C153.20542084 514.92234863 152.72334167 515.40719727 152.22665405 515.90673828 C150.82471225 517.31455393 149.41826711 518.71788049 148.01171875 520.12109375 C147.19147217 520.9402124 146.37122559 521.75933105 145.52612305 522.60327148 C143 525 143 525 139.71679688 527.23046875 C136.88589105 530.11632386 136.59622718 530.45545236 136.36645508 534.19750977 C136.38766178 535.86278875 136.44069301 537.52785933 136.51953125 539.19140625 C136.54293831 540.54128883 136.54293831 540.54128883 136.56681824 541.91844177 C136.62012513 544.80128887 136.71321773 547.68089852 136.8125 550.5625 C136.92407152 554.31356671 137.01502089 558.06427524 137.08203125 561.81640625 C137.09879913 562.73781403 137.11556702 563.6592218 137.13284302 564.60855103 C137.19512604 574.24450376 135.74730193 583.54654949 134 593 C134.68505615 592.30463135 135.3701123 591.6092627 136.07592773 590.89282227 C140.54093621 586.370253 145.04464624 581.97791918 149.87109375 577.84375 C152.45492708 575.6060081 154.97614805 573.30514125 157.5 571 C162.9967858 565.99198449 168.56000294 561.07789011 174.21875 556.25390625 C180.75756218 550.67665756 187.21527224 545.04269567 193.55078125 539.234375 C196.32576456 536.70281128 199.14770423 534.2314386 201.984375 531.76953125 C204.28607764 529.74885044 206.54764379 527.68687382 208.8125 525.625 C212.35160002 522.42347567 215.97103106 519.36853937 219.6875 516.375 C223.47194966 513.31342275 226.96488014 510.15436499 230.34765625 506.66015625 C232.04363594 504.95615774 233.80489696 503.38285917 235.625 501.8125 C240.39406982 497.69710577 244.9980121 493.41051626 249.6171875 489.12890625 C251.82221556 487.08554644 254.03511383 485.05146698 256.2578125 483.02734375 C261.02513751 478.68535628 265.73991829 474.32508424 270.25221252 469.71534729 C272.00611602 467.99399749 273.82338066 466.39708632 275.69116211 464.80053711 C280.03681474 461.01841578 284.12486747 457.01966542 288.19140625 452.94140625 C288.94034653 452.1934227 289.6892868 451.44543915 290.46092224 450.67478943 C292.03271225 449.10367536 293.60325849 447.53131608 295.17260742 445.95776367 C297.55601304 443.56900154 299.94471068 441.18562554 302.33398438 438.80273438 C303.87011237 437.2659455 305.40593009 435.7288464 306.94140625 434.19140625 C307.64576309 433.48907364 308.35011993 432.78674103 309.07582092 432.06312561 C313.04124823 428.07916315 316.82475395 423.99229224 320.49699402 419.73658752 C322.16462916 417.80978589 323.88651434 415.9462721 325.6484375 414.10546875 C326.25647217 413.46593262 326.86450684 412.82639648 327.4909668 412.16748047 C328.11269775 411.51408691 328.73442871 410.86069336 329.375 410.1875 C334.39843503 404.86842418 339.21784452 399.47707193 343.77734375 393.75 C345.87567231 391.15382547 348.03745471 388.63385586 350.23120117 386.11889648 C357.55627092 377.70819511 364.31959004 368.92707258 371 360 C371.58072266 359.22962402 372.16144531 358.45924805 372.75976562 357.66552734 C380.9916145 346.73696077 388.81462585 335.6463054 396 324 C396.41169434 323.33355469 396.82338867 322.66710937 397.24755859 321.98046875 C424.15329268 278.07883531 439.99950708 233.19918102 445 182 C445.33 182 445.66 182 446 182 C446.06875576 210.80699042 446.12169171 239.61397098 446.15319599 268.42102761 C446.15694715 271.83854654 446.16083021 275.2560653 446.16479492 278.67358398 C446.16558185 279.35381838 446.16636878 280.03405277 446.16717956 280.73490033 C446.18015737 291.68256339 446.20376805 302.63017815 446.23145839 313.57781275 C446.25972683 324.84982198 446.27599712 336.12180751 446.28226548 347.39385396 C446.28614389 353.70887265 446.29512459 360.0237826 446.31719017 366.3387661 C446.48998343 417.78627774 446.48998343 417.78627774 443 441 C442.8169879 442.22668443 442.8169879 442.22668443 442.63027859 443.47815037 C441.97814007 447.74479572 441.2070699 451.96514259 440.3125 456.1875 C439.93339478 458.02501831 439.93339478 458.02501831 439.54663086 459.8996582 C436.8399804 472.52174473 433.15728891 484.78692864 429 497 C428.55720703 498.30783447 428.55720703 498.30783447 428.10546875 499.64208984 C411.54858949 547.9235374 383.73111322 592.63572153 350.453125 631.14453125 C348.01053637 633.98773553 345.65782084 636.88882623 343.3125 639.8125 C340.11831705 643.74117422 336.78945732 647.37089272 333.1171875 650.85546875 C331.26766941 652.7288736 329.5628737 654.64596061 327.84765625 656.640625 C323.63097302 661.49597874 319.11891875 666.02779572 314.5625 670.5625 C313.75490234 671.37396484 312.94730469 672.18542969 312.11523438 673.02148438 C307.82044879 677.30934847 303.45241307 681.44103382 298.85131836 685.39819336 C296.00288404 687.8627295 293.25517382 690.43230213 290.5 693 C284.68864632 698.38552531 278.77842137 703.62724684 272.75390625 708.7734375 C271.5442142 709.8072254 270.3345804 710.84108147 269.125 711.875 C268.51624023 712.39489502 267.90748047 712.91479004 267.28027344 713.45043945 C263.74318841 716.47931717 260.25581992 719.55171743 256.8125 722.6875 C253.47772886 725.71712868 250.06712361 728.60608092 246.5625 731.4375 C241.78283262 735.30291314 237.25494907 739.38386047 232.734375 743.546875 C230.13692058 745.87716268 227.47594286 748.07247168 224.75 750.25 C218.69677023 755.13079646 213.091697 760.44760945 207.4375 765.77734375 C204.35960942 768.67569071 201.21519825 771.47953643 198.01171875 774.23828125 C194.81396052 777.03864816 191.69695745 779.92722891 188.57055664 782.80664062 C185.32227724 785.79606235 182.04648216 788.75109513 178.75 791.6875 C175.09204907 794.96563175 171.58928165 798.34751903 168.1796875 801.8828125 C166.33820661 803.67149107 164.46121761 805.32916015 162.51171875 806.99609375 C157.28355625 811.5402202 152.41245503 816.43755095 147.52709961 821.3425293 C145.94040054 822.93458966 144.34842258 824.5212299 142.75585938 826.10742188 C137.87276471 830.98732504 133.08725645 835.90543591 128.59887695 841.15600586 C125.71872187 844.47770556 122.6550227 847.62812877 119.625 850.8125 C114.55163988 856.18509816 109.68575937 861.61211207 105.08203125 867.39453125 C102.90033205 870.12472518 100.64168805 872.77757311 98.375 875.4375 C51.25049095 932.13190935 20.60699111 996.03200961 15 1070 C14.67 1070 14.34 1070 14 1070 C13.96036133 1069.26700684 13.92072266 1068.53401367 13.87988281 1067.77880859 C10.18184067 1002.28668661 -15.61679873 943.34964858 -56 892 C-56.8664606 890.87935073 -57.73231072 889.75822928 -58.59765625 888.63671875 C-63.58948917 882.19612963 -68.7122214 875.88741989 -74.00854492 869.69482422 C-76.96341071 866.23962727 -79.84048318 862.7328417 -82.6875 859.1875 C-85.88168295 855.25882578 -89.21054268 851.62910728 -92.8828125 848.14453125 C-94.6919781 846.31200004 -96.34792994 844.44301637 -98.01928711 842.48730469 C-102.40323494 837.46326452 -107.08993681 832.76638848 -111.80859375 828.05859375 C-112.73414566 827.13208511 -113.65969757 826.20557648 -114.61329651 825.25099182 C-116.56064855 823.30217639 -118.50976913 821.35515263 -120.46020508 819.40942383 C-122.93896395 816.93636139 -125.41320431 814.45883467 -127.8861227 811.97993374 C-130.27450145 809.58703799 -132.6667208 807.19799682 -135.05859375 804.80859375 C-136.37457802 803.48957314 -136.37457802 803.48957314 -137.71714783 802.14390564 C-142.12639677 797.75124827 -146.59800252 793.50317121 -151.31825256 789.44593811 C-153.2618655 787.77485245 -155.13949889 786.04415786 -157 784.28125 C-157.66 783.65863281 -158.32 783.03601563 -159 782.39453125 C-160.33333333 781.13151042 -161.66666667 779.86848958 -163 778.60546875 C-166.99434196 774.83736882 -171.05379722 771.16694898 -175.20068359 767.56738281 C-177.43587413 765.62031046 -179.62470003 763.62505531 -181.8125 761.625 C-185.25378205 758.51471149 -188.76321298 755.53521688 -192.375 752.625 C-196.92780507 748.94428153 -201.23417411 745.07351352 -205.5168457 741.08862305 C-209.62760957 737.28614986 -213.92266523 733.75736701 -218.28515625 730.24609375 C-222.06851677 727.11597534 -225.6503082 723.78238948 -229.26171875 720.45703125 C-231.88160046 718.10623867 -234.56552219 715.88749541 -237.3125 713.6875 C-243.05915563 709.05230355 -248.40879086 704.04435965 -253.7890625 698.99609375 C-256.17359485 696.76085267 -258.5876206 694.5729972 -261.0625 692.4375 C-271.15408728 683.71623347 -280.72140095 674.44343089 -290.13183594 664.99853516 C-291.8914348 663.23351456 -293.65640397 661.47398867 -295.421875 659.71484375 C-301.16131667 653.97912481 -306.76856843 648.20958108 -312 642 C-312.97251677 640.88155739 -313.94644613 639.76434129 -314.921875 638.6484375 C-321.87257963 630.62494362 -328.56717256 622.44440942 -335 614 C-335.52819336 613.30841797 -336.05638672 612.61683594 -336.60058594 611.90429688 C-380.45813615 554.19564645 -416.36288424 481.8999167 -416.12025452 407.83798218 C-416.12110894 406.86571957 -416.12196337 405.89345697 -416.12284368 404.89173186 C-416.12447971 401.66136318 -416.11900809 398.43104742 -416.11352539 395.20068359 C-416.11324309 392.874115 -416.1134021 390.54754632 -416.1139679 388.22097778 C-416.11425418 381.92424226 -416.10838465 375.62752589 -416.10139394 369.33079481 C-416.09513239 362.74312405 -416.09455438 356.15545282 -416.09336853 349.56777954 C-416.09078254 338.51702544 -416.08437458 327.46627803 -416.07543945 316.41552734 C-416.06624913 305.03727249 -416.05917623 293.65901954 -416.05493164 282.28076172 C-416.05453756 281.22730614 -416.05453756 281.22730614 -416.05413551 280.15256862 C-416.0528304 276.62903416 -416.05156671 273.10549969 -416.05032361 269.58196521 C-416.03997047 240.38797226 -416.02229446 211.19398622 -416 182 C-415.67 182 -415.34 182 -415 182 C-414.96036133 182.58152832 -414.92072266 183.16305664 -414.87988281 183.76220703 C-410.09721104 251.28771931 -379.77367327 310.08127122 -339 363 C-338.30028076 363.91023926 -338.30028076 363.91023926 -337.58642578 364.83886719 C-331.78125237 372.36913413 -325.7818332 379.70491041 -319.6015625 386.9296875 C-317.25742299 389.67734045 -315.00116684 392.48800228 -312.75 395.3125 C-308.25627715 400.84448372 -303.40140723 406.00694839 -298.49121094 411.16723633 C-297.8830957 411.80685303 -297.27498047 412.44646973 -296.6484375 413.10546875 C-296.11395996 413.66387451 -295.57948242 414.22228027 -295.02880859 414.79760742 C-293.8707777 416.05471893 -292.72376999 417.32272751 -291.61235046 418.62123108 C-286.261093 424.86947762 -280.47953523 430.66606891 -274.66015625 436.47265625 C-273.56816809 437.56531989 -272.47632825 438.65813178 -271.3846283 439.75108337 C-269.10772878 442.02944838 -266.82905347 444.30601783 -264.54907227 446.58129883 C-261.64657559 449.47809895 -258.74859294 452.3793668 -255.85193729 455.28200626 C-253.6016457 457.53593465 -251.34894908 459.78744726 -249.09554863 462.03826714 C-248.02684872 463.10630638 -246.95887326 464.17507108 -245.89167976 465.24461555 C-240.10094605 471.04530828 -234.22841672 476.66884687 -228 482 C-226.60735373 483.2784322 -225.22210208 484.56508389 -223.8515625 485.8671875 C-223.1613501 486.52066162 -222.4711377 487.17413574 -221.76000977 487.84741211 C-221.05545654 488.51651611 -220.35090332 489.18562012 -219.625 489.875 C-213.49169301 495.67350933 -207.30675759 501.39036242 -201 507 C-199.29102989 508.54096076 -197.58270637 510.08263888 -195.875 511.625 C-190.57774408 516.38925029 -185.23902088 521.0981804 -179.8125 525.71484375 C-173.53966528 531.05658872 -167.36077933 536.46164546 -161.32470703 542.06982422 C-158.18496883 544.96748224 -154.95833511 547.70346573 -151.625 550.375 C-145.89684546 554.98405054 -140.57276809 559.97306712 -135.21484375 565 C-132.22359361 567.80391933 -129.16337294 570.51395151 -126.05859375 573.19140625 C-122.31930885 576.47658444 -118.68137639 579.87453915 -115.02734375 583.25390625 C-111.75619511 586.25255074 -108.38436962 589.13043942 -105 592 C-105.09087891 591.32759277 -105.18175781 590.65518555 -105.27539062 589.96240234 C-109.72345565 556.36810609 -109.72345565 556.36810609 -107.484375 539.76953125 C-106.4210585 533.65468831 -106.4210585 533.65468831 -108.2578125 528.01953125 C-110.38978314 526.14179142 -112.66214438 524.61505706 -115 523 C-117.18348585 521.12467887 -119.27739894 519.15791787 -121.375 517.1875 C-121.9328418 516.67074707 -122.49068359 516.15399414 -123.06542969 515.62158203 C-130.78627099 508.45798406 -138.25836756 501.10072401 -145 493 C-145.41975098 492.50467773 -145.83950195 492.00935547 -146.27197266 491.49902344 C-162.89000973 471.81170717 -175.86151375 450.15138054 -182 425 C-182.36931641 423.51693359 -182.36931641 423.51693359 -182.74609375 422.00390625 C-198.45522713 345.62501639 -137.90807905 237.22620368 -91.58251953 152.609375 C-88.97230878 148.30546686 -86.42772621 143.96315436 -83.875 139.625 C-81.58509268 135.74895937 -79.29233627 131.87460452 -77 128 C-76.6536853 127.41436279 -76.30737061 126.82872559 -75.95056152 126.2253418 C-66.82729261 110.7974901 -57.66566468 95.39699679 -48.32836914 80.0975647 C-42.86719798 71.14406962 -37.5312223 62.12315832 -32.25 53.0625 C-25.84747615 42.07969234 -19.264437 31.2247924 -12.52294922 20.44628906 C-9.88516635 16.20926047 -7.28641024 11.94844504 -4.6875 7.6875 C-3.9752124 6.52021362 -3.9752124 6.52021362 -3.24853516 5.3293457 C-2.16515242 3.553225 -1.08248688 1.77666684 0 0 Z M12.4765625 637.37109375 C2.52074308 648.48212428 -5.56040471 660.62726896 -12.5 673.8125 C-12.99209961 674.7420752 -13.48419922 675.67165039 -13.99121094 676.62939453 C-15.40422791 679.39057987 -16.72280246 682.17355502 -18 685 C-18.46116211 685.99491455 -18.92232422 686.9898291 -19.39746094 688.01489258 C-21.71427816 693.65923406 -21.71427816 693.65923406 -21.40625 699.60913086 C-20.19790311 702.24540652 -18.80693777 704.61642748 -17.25 707.0625 C-16.18947618 708.90159469 -15.13487409 710.74411569 -14.0859375 712.58984375 C-13.55709961 713.5010498 -13.02826172 714.41225586 -12.48339844 715.35107422 C3.16000862 743.28572969 10.30545817 776.52047924 14 808 C14.33 808 14.66 808 15 808 C15.12004395 807.24195068 15.24008789 806.48390137 15.36376953 805.70288086 C21.08672198 770.0003793 29.78407533 733.45297215 48.890625 702.25 C50.60563577 699.19155281 50.99939115 698.09203723 51.0234375 694.45703125 C49.81652961 690.38026222 48.37938341 686.55765187 46.625 682.6875 C46.2741333 681.90987305 45.9232666 681.13224609 45.56176758 680.33105469 C38.87490274 665.93570056 30.07700128 653.20019441 20 641 C19.27683594 640.04738281 18.55367188 639.09476563 17.80859375 638.11328125 C17.21175781 637.41589844 16.61492187 636.71851563 16 636 C13.90616879 635.77701176 13.90616879 635.77701176 12.4765625 637.37109375 Z " fill="#FDD300" transform="translate(416,5)"/>
<path d="M0 0 C35.97 0 71.94 0 109 0 C109 283.47 109 566.94 109 859 C73.03 859 37.06 859 0 859 C-0.33 844.81 -0.66 830.62 -1 816 C-3.31 818.31 -5.62 820.62 -8 823 C-41.47718294 851.73345256 -84.752891 864.7862386 -128 869 C-128.93932373 869.0942627 -129.87864746 869.18852539 -130.84643555 869.28564453 C-140.94938371 870.18687297 -151.05190255 870.24334653 -161.1875 870.25 C-162.57953644 870.25101212 -162.57953644 870.25101212 -163.99969482 870.25204468 C-179.1904469 870.23456451 -193.99605112 869.57605488 -209 867 C-210.00579102 866.82839355 -211.01158203 866.65678711 -212.04785156 866.47998047 C-255.57720264 858.77036606 -295.88511083 839.94889793 -328.21484375 809.59765625 C-330.70292237 807.27707802 -333.23925981 805.03741665 -335.8125 802.8125 C-339.1507157 799.84983357 -342.13937148 796.76926998 -345.01171875 793.35546875 C-346.52602275 791.56150939 -348.07724407 789.79864214 -349.64453125 788.05078125 C-365.29091267 770.50287538 -377.93785382 750.25168046 -388.02490234 729.04931641 C-388.66465521 727.70477822 -389.31061975 726.36317442 -389.96337891 725.02490234 C-406.04939415 691.89799424 -413.96264668 655.39408191 -418 619 C-418.11714355 617.99420898 -418.23428711 616.98841797 -418.35498047 615.95214844 C-428.89065662 522.05469589 -407.42849176 423.33036146 -349 348 C-345.93321101 344.18205831 -342.74729189 340.4776699 -339.52197266 336.79296875 C-337.58150079 334.50698457 -335.7250724 332.15756617 -333.8515625 329.81640625 C-328.95035727 323.81039615 -323.62584418 318.32981201 -318.125 312.875 C-317.20847656 311.95074219 -316.29195312 311.02648437 -315.34765625 310.07421875 C-309.20843919 303.95227093 -302.80144062 298.37148112 -296 293 C-295.30052246 292.43587402 -294.60104492 291.87174805 -293.88037109 291.29052734 C-257.77626413 262.25601084 -214.25659134 243.52567333 -168 239 C-166.87722656 238.88914063 -165.75445313 238.77828125 -164.59765625 238.6640625 C-110.89545211 234.27294305 -49.16916582 241.74094584 -5.875 276.51953125 C-4.30795205 277.75684619 -2.66130828 278.89246115 -1 280 C-0.67 187.6 -0.34 95.2 0 0 Z M-234.49023438 376.52539062 C-236.10622726 378.10375367 -237.74771541 379.65282587 -239.390625 381.203125 C-273.54857492 413.87121696 -293.08804307 458.76824358 -301.25 504.75 C-301.40106201 505.59852539 -301.55212402 506.44705078 -301.70776367 507.32128906 C-302.18844199 510.20915451 -302.60586917 513.09897073 -303 516 C-303.1308046 516.95885101 -303.1308046 516.95885101 -303.26425171 517.93707275 C-305.13045226 532.07652294 -305.35952782 546.12827718 -305.3125 560.375 C-305.31067719 561.52063416 -305.30885437 562.66626831 -305.30697632 563.84661865 C-305.25996613 581.41127957 -304.7582266 598.62262946 -302 616 C-301.83371094 617.08168457 -301.66742187 618.16336914 -301.49609375 619.27783203 C-293.73367064 668.14516051 -273.42539366 714.71194698 -232.8125 744.8125 C-200.37036109 767.97438129 -159.41835111 777.9957108 -120 779 C-119.22172852 779.02578125 -118.44345703 779.0515625 -117.64160156 779.078125 C-79.17210349 780.24696657 -38.2393081 766.43082679 -9 741 C-3.48681191 735.53385277 0.23740936 731.26302596 0.27402878 723.26824379 C0.28417786 722.09152568 0.29432695 720.91480756 0.30478358 719.70243132 C0.30627685 717.7615221 0.30627685 717.7615221 0.30780029 715.78140259 C0.3158319 714.39374054 0.32470874 713.00608318 0.33435941 711.61843145 C0.35827712 707.80076874 0.36958407 703.98315657 0.37872171 700.16543365 C0.39063956 696.0492813 0.41385815 691.93318927 0.43530273 687.81707764 C0.48434322 677.87275546 0.51360683 667.92841331 0.53942287 657.98400742 C0.54684823 655.17419322 0.5547946 652.364381 0.5629282 649.55456877 C0.61341014 632.09895325 0.65750829 614.64333454 0.68238449 597.18766212 C0.68824373 593.14447645 0.69416707 589.10129089 0.70019531 585.05810547 C0.70168741 584.05321203 0.70317952 583.04831859 0.70471683 582.01297383 C0.73000627 565.7462247 0.79642781 549.47991368 0.87979898 533.21336921 C0.96473182 516.50480872 1.0117856 499.79647217 1.02222562 483.08769643 C1.02904407 473.70955917 1.05243588 464.33210607 1.11843109 454.95418167 C1.17456548 446.96443263 1.19637392 438.97550795 1.17404017 430.98557706 C1.16369869 426.9123699 1.16922012 422.840887 1.21897125 418.76793289 C2.07285061 397.49192394 2.07285061 397.49192394 -7.52851486 379.31287193 C-8.75190001 378.16800033 -8.75190001 378.16800033 -10 377 C-11.12482983 375.66521608 -12.23872572 374.32088589 -13.328125 372.95703125 C-14.2905403 371.89824571 -15.26434892 370.84968947 -16.25 369.8125 C-17.06041748 368.95362183 -17.06041748 368.95362183 -17.88720703 368.07739258 C-42.05204154 343.08252136 -74.5989982 330.4851157 -109.04736328 329.71459961 C-155.20272719 329.28181997 -201.09962282 343.76734817 -234.49023438 376.52539062 Z " fill="#534A42" transform="translate(2307,0)"/>
<path d="M0 0 C0.54640137 0.4846875 1.09280273 0.969375 1.65576172 1.46875 C61.44712215 54.72449348 84.71927032 135.37705462 90 213 C90.08685059 214.26956543 90.17370117 215.53913086 90.26318359 216.84716797 C91.05409343 229.18688089 91.24272788 241.51215663 91.25 253.875 C91.25101212 255.44021393 91.25101212 255.44021393 91.25204468 257.03704834 C91.1920961 315.94241037 81.16152949 373.83711589 55 427 C54.61344238 427.78697266 54.22688477 428.57394531 53.82861328 429.38476562 C37.35314244 462.52482971 13.54041706 494.39173415 -16 517 C-16.55913086 517.43022461 -17.11826172 517.86044922 -17.69433594 518.30371094 C-26.74809809 525.23296182 -36.07594412 531.39423598 -46 537 C-46.64098633 537.36834961 -47.28197266 537.73669922 -47.94238281 538.11621094 C-87.29529833 560.58966888 -134.06324818 569.79907997 -179 571 C-179.8667334 571.02723145 -180.7334668 571.05446289 -181.62646484 571.08251953 C-227.57469047 572.36042191 -289.89326833 564.3163336 -326 533 C-327.32 531.68 -328.64 530.36 -330 529 C-330.33 617.77 -330.66 706.54 -331 798 C-366.97 798 -402.94 798 -440 798 C-440 518.16 -440 238.32 -440 -50 C-404.03 -50 -368.06 -50 -331 -50 C-330.67 -34.49 -330.34 -18.98 -330 -3 C-327.69 -5.31 -325.38 -7.62 -323 -10 C-309.75270441 -21.85612191 -294.77182391 -31.85154371 -279 -40 C-278.33564941 -40.34514648 -277.67129883 -40.69029297 -276.98681641 -41.04589844 C-194.96712689 -83.07186396 -75.80583596 -64.11779011 0 0 Z M-246 33 C-246.74830078 33.20979492 -247.49660156 33.41958984 -248.26757812 33.63574219 C-278.71760941 42.38982095 -308.48611978 58.48611978 -331 81 C-331.10304894 82.88552082 -331.13477216 84.77495062 -331.1398077 86.66327858 C-331.14549894 87.90104156 -331.15119018 89.13880454 -331.15705389 90.41407549 C-331.15834673 91.80547936 -331.15953471 93.19688332 -331.16062927 94.58828735 C-331.16535651 96.05259188 -331.17050691 97.51689509 -331.17604691 98.98119676 C-331.18999911 103.0243804 -331.19754961 107.067555 -331.2040199 111.11075664 C-331.21037746 114.57400028 -331.22044949 118.03722897 -331.23058056 121.50046332 C-331.26395605 132.91447027 -331.28543673 144.32848632 -331.30378041 155.74252611 C-331.30857287 158.71361492 -331.3135565 161.68470335 -331.31858563 164.65579176 C-331.34955696 183.09363877 -331.37625152 201.53148888 -331.39300442 219.96935463 C-331.39695414 224.24307892 -331.40095709 228.51680316 -331.4050293 232.79052734 C-331.40603766 233.85278453 -331.40704602 234.91504171 -331.40808494 236.00948851 C-331.42509293 253.21866073 -331.46620089 270.42768917 -331.51705229 287.63679118 C-331.56879768 305.29329999 -331.59794275 322.94973482 -331.6052013 340.60631883 C-331.60986777 350.52455142 -331.62466271 360.44254869 -331.6649456 370.36070633 C-331.69921084 378.80769137 -331.71319926 387.25439867 -331.70052146 395.70144923 C-331.69468606 400.01231586 -331.69861968 404.32259485 -331.7286911 408.63337326 C-331.75600024 412.58036314 -331.75559629 416.52634646 -331.73318065 420.4733582 C-331.72995098 421.90077991 -331.73686568 423.32826838 -331.75497787 424.75557883 C-332.03538922 433.63406593 -332.03538922 433.63406593 -328.109025 441.25528526 C-326.57059191 442.74864032 -326.57059191 442.74864032 -325 444 C-324.18402344 444.74765625 -323.36804687 445.4953125 -322.52734375 446.265625 C-282.16154605 477.1944715 -231.93391919 482.81566788 -183.04199219 476.62548828 C-162.26841219 473.73345259 -141.84085659 468.30773801 -123 459 C-122.31921387 458.67306152 -121.63842773 458.34612305 -120.93701172 458.00927734 C-89.49804176 442.81269333 -66.06732977 417.68032251 -50 387 C-49.40574219 385.87851562 -48.81148437 384.75703125 -48.19921875 383.6015625 C-30.57103794 348.18310267 -23.9638614 306.11881491 -23.796875 266.82421875 C-23.78986069 265.70805679 -23.78284637 264.59189484 -23.77561951 263.44190979 C-23.75821606 259.85706495 -23.75176663 256.27238554 -23.75 252.6875 C-23.74932526 251.46035278 -23.74865051 250.23320557 -23.74795532 248.96887207 C-23.80085355 188.36036229 -32.75800204 121.42993323 -77.4765625 76.484375 C-111.42650389 43.40494493 -161.8978877 31.01625781 -208 30 C-208.87317871 29.97421875 -209.74635742 29.9484375 -210.64599609 29.921875 C-222.82216844 29.59351033 -234.20682008 29.65458774 -246 33 Z " fill="#534A42" transform="translate(1742,300)"/>
<path d="M0 0 C0.54640137 0.4846875 1.09280273 0.969375 1.65576172 1.46875 C61.68823626 54.93925211 84.9954801 136.08099703 90 214 C90.04236786 214.65483368 90.08473572 215.30966736 90.12838745 215.98434448 C90.93713231 228.80481515 91.20386477 241.59311305 91.1875 254.4375 C91.18656342 255.39832489 91.18562683 256.35914978 91.18466187 257.34909058 C91.02263624 334.49005023 73.57417157 414.83385796 24 476 C22.91138672 477.37671875 22.91138672 477.37671875 21.80078125 478.78125 C15.88010817 486.17943396 9.5152957 493.12766983 3 500 C2.2884375 500.75410156 1.576875 501.50820313 0.84375 502.28515625 C-12.65954583 516.2035124 -29.16945016 527.49299078 -46 537 C-46.64098633 537.36834961 -47.28197266 537.73669922 -47.94238281 538.11621094 C-110.14969141 573.6412366 -192.79402538 579.98563868 -261.3125 561.625 C-285.85025912 554.85174352 -311.56487987 547.43512013 -330 529 C-330.33 617.77 -330.66 706.54 -331 798 C-366.97 798 -402.94 798 -440 798 C-440 518.16 -440 238.32 -440 -50 C-404.03 -50 -368.06 -50 -331 -50 C-330.67 -34.49 -330.34 -18.98 -330 -3 C-327.36 -5.64 -324.72 -8.28 -322 -11 C-319.79124218 -12.87247635 -317.60405819 -14.67842562 -315.3125 -16.4375 C-314.7129248 -16.90140137 -314.11334961 -17.36530273 -313.49560547 -17.84326172 C-237.36107648 -76.25906397 -128.34317788 -74.33544328 0 0 Z M-325 75 C-326.03561915 75.75049181 -327.07123831 76.50098362 -328.13823986 77.27421761 C-332.88424836 82.11979979 -331.83022786 88.83887124 -331.76863098 95.18283081 C-331.77626259 96.6507519 -331.78650576 98.11866135 -331.79913253 99.58654797 C-331.8261254 103.61677742 -331.81567227 107.64617222 -331.79900706 111.6764257 C-331.7874965 116.02423071 -331.81046821 120.37187307 -331.82896423 124.71963501 C-331.85951538 133.23604566 -331.85744407 141.75215025 -331.84351341 150.2685927 C-331.83270007 157.19060694 -331.83321858 164.11253306 -331.84183311 171.03454971 C-331.84304124 172.01945559 -331.84424936 173.00436147 -331.84549409 174.01911298 C-331.84798473 176.01990995 -331.85049571 178.0207069 -331.85302683 180.02150382 C-331.87531474 198.78852884 -331.86002554 217.55538247 -331.83244052 236.32239105 C-331.80972698 252.4238646 -331.82139387 268.52502027 -331.85766602 284.62646484 C-331.89977933 303.32288731 -331.91890853 322.01911266 -331.90264148 340.71558201 C-331.90098182 342.7096609 -331.89935847 344.70373981 -331.89777184 346.69781876 C-331.89698689 347.67894639 -331.89620195 348.66007402 -331.89539323 349.67093279 C-331.89150242 356.58328091 -331.90422137 363.49548401 -331.92350197 370.40780258 C-331.94663075 378.83386296 -331.94500431 387.25948064 -331.91158883 395.68551384 C-331.89518624 399.98442658 -331.88997775 404.28257161 -331.91518784 408.58145905 C-331.93796572 412.51862227 -331.9283103 416.45433704 -331.89301594 420.3913957 C-331.88590281 421.8139516 -331.89054204 423.23662614 -331.90825496 424.65908955 C-332.0456393 433.92446895 -332.0456393 433.92446895 -327.62357616 441.75239754 C-325.82941505 443.51814621 -325.82941505 443.51814621 -324 445 C-323.05640625 445.79148437 -322.1128125 446.58296875 -321.140625 447.3984375 C-275.92925019 478.31324244 -224.6677695 484.2927217 -171.609375 474.80688477 C-154.77406047 471.54736149 -138.38497577 466.6004678 -123 459 C-122.31921387 458.67306152 -121.63842773 458.34612305 -120.93701172 458.00927734 C-89.49804176 442.81269333 -66.06732977 417.68032251 -50 387 C-49.40574219 385.87851562 -48.81148437 384.75703125 -48.19921875 383.6015625 C-30.57103794 348.18310267 -23.9638614 306.11881491 -23.796875 266.82421875 C-23.78986069 265.70805679 -23.78284637 264.59189484 -23.77561951 263.44190979 C-23.75821606 259.85706495 -23.75176663 256.27238554 -23.75 252.6875 C-23.74932526 251.46035278 -23.74865051 250.23320557 -23.74795532 248.96887207 C-23.80085355 188.36036229 -32.75800204 121.42993323 -77.4765625 76.484375 C-115.30303201 39.62781496 -172.03722452 29.44895048 -222.96240234 29.7019043 C-259.78817699 30.4343259 -297.64546925 51.40985422 -325 75 Z " fill="#534A42" transform="translate(2981,300)"/>
<path d="M0 0 C0.33 0 0.66 0 1 0 C1.03963867 0.58152832 1.07927734 1.16305664 1.12011719 1.76220703 C5.90278896 69.28771931 36.22632673 128.08127122 77 181 C77.46647949 181.60682617 77.93295898 182.21365234 78.41357422 182.83886719 C84.21874763 190.36913413 90.2181668 197.70491041 96.3984375 204.9296875 C98.74257701 207.67734045 100.99883316 210.48800228 103.25 213.3125 C107.74372285 218.84448372 112.59859277 224.00694839 117.50878906 229.16723633 C118.1169043 229.80685303 118.72501953 230.44646973 119.3515625 231.10546875 C119.88604004 231.66387451 120.42051758 232.22228027 120.97119141 232.79760742 C122.1292223 234.05471893 123.27623001 235.32272751 124.38764954 236.62123108 C129.738907 242.86947762 135.52046477 248.66606891 141.33984375 254.47265625 C142.43183191 255.56531989 143.52367175 256.65813178 144.6153717 257.75108337 C146.89227122 260.02944838 149.17094653 262.30601783 151.45092773 264.58129883 C154.35342441 267.47809895 157.25140706 270.3793668 160.14806271 273.28200626 C162.3983543 275.53593465 164.65105092 277.78744726 166.90445137 280.03826714 C167.97315128 281.10630638 169.04112674 282.17507108 170.10832024 283.24461555 C175.89905395 289.04530828 181.77158328 294.66884687 188 300 C189.39264627 301.2784322 190.77789792 302.56508389 192.1484375 303.8671875 C192.8386499 304.52066162 193.5288623 305.17413574 194.23999023 305.84741211 C194.94454346 306.51651611 195.64909668 307.18562012 196.375 307.875 C202.50830699 313.67350933 208.69324241 319.39036242 215 325 C216.70897011 326.54096076 218.41729363 328.08263888 220.125 329.625 C225.42225592 334.38925029 230.76097912 339.0981804 236.1875 343.71484375 C242.46033472 349.05658872 248.63922067 354.46164546 254.67529297 360.06982422 C257.81503117 362.96748224 261.04166489 365.70346573 264.375 368.375 C270.10315454 372.98405054 275.42723191 377.97306712 280.78515625 383 C283.77640639 385.80391933 286.83662706 388.51395151 289.94140625 391.19140625 C293.68069115 394.47658444 297.31862361 397.87453915 300.97265625 401.25390625 C304.24380489 404.25255074 307.61563038 407.13043942 311 410 C310.90912109 409.32759277 310.81824219 408.65518555 310.72460938 407.96240234 C308.12659859 388.34075936 305.8648533 368.56810494 310 349 C313.94571497 350.65834397 316.93395781 353.34732469 320.125 356.125 C321.29472094 357.12859802 322.46530078 358.1311958 323.63671875 359.1328125 C324.21083496 359.62426758 324.78495117 360.11572266 325.37646484 360.62207031 C329.17332089 363.84454483 333.08765151 366.91982017 337 370 C337.51643066 370.40686035 338.03286133 370.8137207 338.56494141 371.23291016 C343.85058151 375.39571805 349.14273785 379.55018933 354.4453125 383.69140625 C371.77473888 397.23959726 388.74748562 411.16958063 405 426 C405.99991685 426.90634174 406.99992107 427.81258711 408 428.71875 C416.12534751 436.09999477 423.96399668 443.55679602 431 452 C429.58933123 455.38894392 427.46084137 457.97218619 425.11645508 460.76855469 C413.22336248 474.97673632 404.15083297 490.9274889 397 508 C396.48824219 509.13566406 395.97648437 510.27132813 395.44921875 511.44140625 C394.76515588 516.86037388 397.18317426 520.16106184 399.875 524.75 C400.91707569 526.6349262 401.95345155 528.52301375 402.984375 530.4140625 C403.50064453 531.35668945 404.01691406 532.29931641 404.54882812 533.27050781 C424.024715 569.9024754 431.53197104 611.5129285 431.34057617 652.54833984 C431.33972772 655.13283274 431.34020928 657.71732636 431.34190369 660.30181885 C431.34346056 665.81705539 431.33422007 671.33218371 431.31719017 676.84739304 C431.29258557 684.82098842 431.28497325 692.79453262 431.2812262 700.76816185 C431.27469493 713.71151891 431.25482512 726.65481856 431.22631836 739.59814453 C431.19869095 752.15543332 431.17750014 764.7127064 431.16479492 777.27001953 C431.16400675 778.04683246 431.16321858 778.82364538 431.16240653 779.62399809 C431.15849081 783.5218707 431.15469983 787.41974343 431.15097082 791.31761622 C431.11997868 823.54511917 431.06723484 855.77255155 431 888 C430.67 888 430.34 888 430 888 C429.96036133 887.26700684 429.92072266 886.53401367 429.87988281 885.77880859 C426.18184067 820.28668661 400.38320127 761.34964858 360 710 C359.1335394 708.87935073 358.26768928 707.75822928 357.40234375 706.63671875 C352.41051083 700.19612963 347.2877786 693.88741989 341.99145508 687.69482422 C339.03658929 684.23962727 336.15951682 680.7328417 333.3125 677.1875 C330.11831705 673.25882578 326.78945732 669.62910728 323.1171875 666.14453125 C321.3080219 664.31200004 319.65207006 662.44301637 317.98071289 660.48730469 C313.59676506 655.46326452 308.91006319 650.76638848 304.19140625 646.05859375 C303.26585434 645.13208511 302.34030243 644.20557648 301.38670349 643.25099182 C299.43935145 641.30217639 297.49023087 639.35515263 295.53979492 637.40942383 C293.06103605 634.93636139 290.58679569 632.45883467 288.1138773 629.97993374 C285.72549855 627.58703799 283.3332792 625.19799682 280.94140625 622.80859375 C279.62542198 621.48957314 279.62542198 621.48957314 278.28285217 620.14390564 C273.87360323 615.75124827 269.40199748 611.50317121 264.68174744 607.44593811 C262.7381345 605.77485245 260.86050111 604.04415786 259 602.28125 C258.34 601.65863281 257.68 601.03601563 257 600.39453125 C255.66666667 599.13151042 254.33333333 597.86848958 253 596.60546875 C249.00565804 592.83736882 244.94620278 589.16694898 240.79931641 585.56738281 C238.56412587 583.62031046 236.37529997 581.62505531 234.1875 579.625 C230.74621795 576.51471149 227.23678702 573.53521688 223.625 570.625 C219.07219493 566.94428153 214.76582589 563.07351352 210.4831543 559.08862305 C206.37239043 555.28614986 202.07733477 551.75736701 197.71484375 548.24609375 C193.93148323 545.11597534 190.3496918 541.78238948 186.73828125 538.45703125 C184.11839954 536.10623867 181.43447781 533.88749541 178.6875 531.6875 C172.94084437 527.05230355 167.59120914 522.04435965 162.2109375 516.99609375 C159.82640515 514.76085267 157.4123794 512.5729972 154.9375 510.4375 C144.84591272 501.71623347 135.27859905 492.44343089 125.86816406 482.99853516 C124.1085652 481.23351456 122.34359603 479.47398867 120.578125 477.71484375 C114.83868333 471.97912481 109.23143157 466.20958108 104 460 C103.02748323 458.88155739 102.05355387 457.76434129 101.078125 456.6484375 C94.12742037 448.62494362 87.43282744 440.44440942 81 432 C80.20770996 430.96262695 80.20770996 430.96262695 79.39941406 429.90429688 C35.54186385 372.19564645 -0.36288424 299.8999167 -0.12025452 225.83798218 C-0.12110894 224.86571957 -0.12196337 223.89345697 -0.12284368 222.89173186 C-0.12447971 219.66136318 -0.11900809 216.43104742 -0.11352539 213.20068359 C-0.11324309 210.874115 -0.1134021 208.54754632 -0.1139679 206.22097778 C-0.11425418 199.92424226 -0.10838465 193.62752589 -0.10139394 187.33079481 C-0.09513239 180.74312405 -0.09455438 174.15545282 -0.09336853 167.56777954 C-0.09078254 156.51702544 -0.08437458 145.46627803 -0.07543945 134.41552734 C-0.06624913 123.03727249 -0.05917623 111.65901954 -0.05493164 100.28076172 C-0.05453756 99.22730614 -0.05453756 99.22730614 -0.05413551 98.15256862 C-0.0528304 94.62903416 -0.05156671 91.10549969 -0.05032361 87.58196521 C-0.03997047 58.38797226 -0.02229446 29.19398622 0 0 Z " fill="#ED701F" transform="translate(0,187)"/>
<path d="M0 0 C35.97 0 71.94 0 109 0 C109.00586624 8.50417694 109.01173248 17.00835388 109.01777649 25.77023315 C109.02185896 31.54037479 109.02595516 37.3105164 109.03013611 43.08065796 C109.03067915 43.83023964 109.03122219 44.57982132 109.03178169 45.3521176 C109.06780463 95.00046799 109.1073832 144.64881273 109.15898132 194.29714966 C109.15997689 195.25610563 109.16097246 196.21506161 109.16199819 197.20307686 C109.18365806 218.04509611 109.20598085 238.8871146 109.22898628 259.72913241 C109.24026454 269.95044361 109.25139635 280.17175496 109.26245117 290.39306641 C109.26355374 291.41019546 109.2646563 292.42732451 109.26579228 293.47527566 C109.30144401 326.42768988 109.3274301 359.38010308 109.34838969 392.33252964 C109.36998428 426.20288452 109.40135835 460.07321665 109.44499113 493.94355064 C109.45115314 498.73039396 109.45720365 503.51723742 109.46318626 508.30408096 C109.46436715 509.24617598 109.46554803 510.18827099 109.46676469 511.15891434 C109.48546696 526.30792043 109.49389754 541.45691557 109.49846124 556.60593179 C109.50327238 571.84556682 109.5189661 587.08516016 109.54566566 602.32477282 C109.56118931 611.37256315 109.56847147 620.4202712 109.56376929 629.46807411 C109.56144743 635.52207025 109.57006007 641.57598898 109.58732411 647.62996073 C109.59683664 651.07299929 109.60182311 654.51586676 109.59339563 657.95891212 C109.54015055 688.1862015 112.81775501 717.68812176 134 741 C134.81082031 741.90363281 135.62164063 742.80726563 136.45703125 743.73828125 C156.94797414 765.42927936 181.98985905 770.23712943 211 773 C211 805.34 211 837.68 211 871 C154.88571297 871 92.8721194 862.71201232 50 823 C49.45214844 822.49597656 48.90429688 821.99195313 48.33984375 821.47265625 C23.82673121 798.66579284 10.49367704 768.39287048 3.75 736 C3.59893799 735.29133789 3.44787598 734.58267578 3.29223633 733.85253906 C-0.23763961 715.68751477 -0.29147598 697.31562232 -0.24453239 678.8875959 C-0.23756601 675.25983086 -0.24242391 671.63207658 -0.24568737 668.00430894 C-0.2498061 661.66580843 -0.24659692 655.32734572 -0.23841095 648.98884964 C-0.22627306 639.56394464 -0.2257456 630.13906315 -0.22749493 620.71415175 C-0.23011468 604.85511974 -0.22347062 588.99610447 -0.21146011 573.13707733 C-0.19960691 557.44537015 -0.19192436 541.75366994 -0.18975449 526.06195831 C-0.18961701 525.08457228 -0.18947953 524.10718625 -0.18933788 523.10018245 C-0.18866117 518.13608992 -0.18805842 513.17199739 -0.18748413 508.20790485 C-0.18328858 473.09042141 -0.16982862 437.97294707 -0.15087891 402.85546875 C-0.13249624 368.74934945 -0.11833578 334.64323264 -0.10986328 300.53710938 C-0.10960023 299.48493642 -0.10933718 298.43276347 -0.10906615 297.3487065 C-0.10642901 286.78189856 -0.10387739 276.21509061 -0.10138843 265.64828264 C-0.09631665 244.12442869 -0.09067415 222.60057491 -0.08468628 201.07672119 C-0.0844117 200.08719181 -0.08413712 199.09766243 -0.08385422 198.07814731 C-0.06960585 146.91259959 -0.04688532 95.74705607 -0.0222168 44.58151245 C-0.02186999 43.86206895 -0.02152318 43.14262546 -0.02116586 42.40138064 C-0.01433737 28.26758698 -0.00713277 14.13379352 0 0 Z " fill="#534A42" transform="translate(996,0)"/>
<path d="M0 0 C1.31700924 3.68244166 0.6690543 6.19234815 -0.328125 9.91796875 C-0.63218262 11.08207275 -0.93624023 12.24617676 -1.24951172 13.44555664 C-1.57967285 14.68039795 -1.90983398 15.91523926 -2.25 17.1875 C-14.19375379 63.35526928 -11.68816026 104.69369739 12.3359375 146.47265625 C13.75385798 149.08572255 13.75385798 149.08572255 16 150 C16.23203125 149.35675781 16.4640625 148.71351563 16.703125 148.05078125 C18.0930316 144.78115157 19.72620252 141.7342549 21.42724609 138.61865234 C44.47391165 96.2600891 41.7160235 52.76768349 29.60083008 7.38989258 C28.98465531 4.93896418 28.47578661 2.48165658 28 0 C28.66 0 29.32 0 30 0 C31.42602539 2.03417969 31.42602539 2.03417969 33.09765625 4.921875 C34.03931641 6.53255859 34.03931641 6.53255859 35 8.17578125 C35.33515625 8.75666504 35.6703125 9.33754883 36.015625 9.93603516 C37.80937804 13.04414734 39.62736693 16.13807498 41.44140625 19.234375 C41.81758087 19.8780603 42.19375549 20.52174561 42.58132935 21.18493652 C46.13334912 27.25410959 49.77701073 33.26530134 53.44180298 39.2668457 C61.00908464 51.66082004 68.44467092 64.12931024 75.82873535 76.63343811 C80.12504055 83.90785236 84.43717816 91.17286977 88.75 98.4375 C89.15629639 99.12201233 89.56259277 99.80652466 89.98120117 100.51177979 C94.75962138 108.56131885 99.55062591 116.60288574 104.375 124.625 C110.10670465 134.16065257 115.79658745 143.72014937 121.42382812 153.31787109 C122.43397184 155.03680523 123.44795121 156.7534945 124.46679688 158.46728516 C139.9729138 184.56074048 153.02681123 212.1337975 165 240 C165.2930603 240.6808667 165.58612061 241.3617334 165.88806152 242.06323242 C227.82482569 386.15022546 227.82482569 386.15022546 207 441 C201.71978835 453.86482866 195.2798161 465.83100335 187 477 C186.34064453 477.89041992 186.34064453 477.89041992 185.66796875 478.79882812 C176.49241981 491.0549288 166.05121396 502.02988489 155.28775024 512.88647461 C154.31627369 513.86669307 153.34616401 514.8482684 152.37753296 515.83129883 C146.8996615 521.38089966 141.44301764 526.5837024 135 531 C133.71527809 527.22140616 132.5312105 523.42578327 131.40356445 519.59765625 C125.37636519 499.48209656 115.9665104 481.78062677 102 466 C101.36408936 465.27868896 100.72817871 464.55737793 100.07299805 463.81420898 C94.55551193 457.61029641 88.82088656 451.6688779 82.9375 445.8125 C82.09123047 444.96236328 81.24496094 444.11222656 80.37304688 443.23632812 C75.96371477 438.8337953 71.48873189 434.57799141 66.76245117 430.51733398 C64.35224729 428.44233507 62.02343776 426.28292695 59.6875 424.125 C55.25100008 420.07798704 50.68728652 416.25116698 46.015625 412.48046875 C42.45329648 409.55031511 38.97532039 406.53234033 35.5 403.5 C30.34085977 399.00165863 25.11849723 394.60688681 19.796875 390.30078125 C16.54721221 387.62752513 13.36852927 384.87915115 10.1875 382.125 C4.99330051 377.63538767 -0.32228161 373.34875605 -5.74926758 369.14501953 C-10.54719122 365.40757685 -15.151185 361.47533743 -19.74121094 357.48706055 C-23.81577289 353.96547486 -27.99155363 350.60853981 -32.25 347.3125 C-37.2827487 343.41250197 -42.08921539 339.35366518 -46.77734375 335.0390625 C-48.79562103 333.18749705 -50.85349135 331.40167 -52.9375 329.625 C-67.11710315 317.18575055 -77.79915405 303.40001035 -87 287 C-87.42345703 286.25411621 -87.84691406 285.50823242 -88.28320312 284.73974609 C-103.23492638 258.21089691 -106.84737367 231.3134375 -106.06542969 201.16259766 C-106.02249142 199.08714141 -106.00661808 197.01091249 -106.02050781 194.93505859 C-106.12518246 177.91440954 -101.18596348 166.94695238 -91.87402344 152.87011719 C-89.02495152 148.50668708 -86.42936195 144.00497754 -83.8125 139.5 C-82.74274405 137.68900498 -81.67105544 135.8791505 -80.59765625 134.0703125 C-78.68219038 130.83894818 -76.76731475 127.60724183 -74.85498047 124.37402344 C-66.09506421 109.56432206 -57.29211329 94.78492189 -48.32836914 80.0975647 C-42.86719798 71.14406962 -37.5312223 62.12315832 -32.25 53.0625 C-25.84747615 42.07969234 -19.264437 31.2247924 -12.52294922 20.44628906 C-9.88516635 16.20926047 -7.28641024 11.94844504 -4.6875 7.6875 C-4.2126416 6.90930908 -3.7377832 6.13111816 -3.24853516 5.3293457 C-2.16515242 3.553225 -1.08248688 1.77666684 0 0 Z " fill="#ED701F" transform="translate(416,5)"/>
<path d="M0 0 C0.66 0 1.32 0 2 0 C3.42602539 2.03417969 3.42602539 2.03417969 5.09765625 4.921875 C5.72542969 5.99566406 6.35320312 7.06945312 7 8.17578125 C7.50273437 9.04710693 7.50273437 9.04710693 8.015625 9.93603516 C9.80937804 13.04414734 11.62736693 16.13807498 13.44140625 19.234375 C14.00566818 20.19990295 14.00566818 20.19990295 14.58132935 21.18493652 C18.13334912 27.25410959 21.77701073 33.26530134 25.44180298 39.2668457 C33.00908464 51.66082004 40.44467092 64.12931024 47.82873535 76.63343811 C52.12504055 83.90785236 56.43717816 91.17286977 60.75 98.4375 C61.35944458 99.46426849 61.35944458 99.46426849 61.98120117 100.51177979 C67.22404948 109.34367619 72.48797622 118.16236761 77.78173828 126.96386719 C81.97895277 133.94890486 86.14574637 140.95203137 90.26245117 147.98486328 C92.76748573 152.26041626 95.29866536 156.50342569 97.97265625 160.67578125 C98.43269043 161.40966064 98.89272461 162.14354004 99.36669922 162.8996582 C100.2015121 164.22718043 101.05395324 165.54392029 101.93017578 166.84448242 C108.74128931 177.8169741 107.3450988 192.87471091 107.31567383 205.32910156 C107.31252836 208.10001574 107.33600959 210.86984292 107.36132812 213.640625 C107.43483363 234.18205179 105.44444318 256.81893225 95 275 C94.27554688 274.27425781 93.55109375 273.54851562 92.8046875 272.80078125 C91.06518313 271.06369958 89.32122718 269.33104865 87.5703125 267.60546875 C83.19651236 263.28057692 78.96342985 258.91566815 74.9609375 254.24609375 C72.44426225 251.3634478 69.85042522 248.55702984 67.25 245.75 C66.73542236 245.19425293 66.22084473 244.63850586 65.69067383 244.06591797 C64.64268667 242.93430701 63.59459063 241.80279689 62.54638672 240.67138672 C56.84291822 234.50688635 51.16951003 228.31492125 45.5625 222.0625 C42.07551903 218.17629402 38.54668015 214.33157193 35 210.5 C30.7195823 205.87575207 26.47931269 201.21930875 22.27734375 196.5234375 C20.17610631 194.19513666 18.04982137 191.89189595 15.91650391 189.59301758 C10.35900581 183.58819931 5.05470608 177.43922039 0 171 C-0.50805176 170.35385742 -1.01610352 169.70771484 -1.53955078 169.04199219 C-3.20516872 166.91208879 -4.8547065 164.77063234 -6.5 162.625 C-7.02907959 161.94663086 -7.55815918 161.26826172 -8.10327148 160.56933594 C-13.18469367 153.86069339 -13.18469367 153.86069339 -13 150 C-11.78376981 147.12982386 -10.18492101 144.53133651 -8.5625 141.875 C15.93422749 99.63271362 14.33050512 55.84016297 2.26953125 9.89453125 C2.04885986 9.06800049 1.82818848 8.24146973 1.60083008 7.38989258 C0.98465531 4.93896418 0.47578661 2.48165658 0 0 Z " fill="#FDD300" transform="translate(444,5)"/>
<path d="M0 0 C3.84210454 2.8147721 6.73887514 6.01450542 9.52734375 9.8515625 C10.36072266 10.96144531 10.36072266 10.96144531 11.2109375 12.09375 C11.86255859 12.96386719 11.86255859 12.96386719 12.52734375 13.8515625 C12.90503906 13.28308594 13.28273438 12.71460938 13.671875 12.12890625 C19.40532063 4.08596964 26.85745474 -1.64273633 36.52734375 -4.1484375 C48.46960381 -5.4367961 58.12947543 -4.60214928 67.71484375 2.9765625 C76.26100539 10.99497313 80.01877301 21.18210127 80.78500366 32.73718262 C80.9088623 37.15605076 80.86581737 41.57242098 80.8203125 45.9921875 C80.81470347 47.61171064 80.81043957 49.23123895 80.80744934 50.85076904 C80.79610328 55.07251533 80.76672695 59.29394217 80.7333374 63.51556396 C80.70241311 67.83975913 80.68889668 72.16400691 80.67382812 76.48828125 C80.64184514 84.94286984 80.58916363 93.39713939 80.52734375 101.8515625 C74.25734375 101.8515625 67.98734375 101.8515625 61.52734375 101.8515625 C61.50546997 98.94682129 61.50546997 98.94682129 61.4831543 95.98339844 C61.43123222 89.54121628 61.36587579 83.09927637 61.29162884 76.6573143 C61.24715164 72.75659046 61.20784775 68.85596563 61.1809082 64.95507812 C61.15464646 61.18121023 61.1140886 57.40772814 61.06415749 53.63410187 C61.04764162 52.20386859 61.03603326 50.77356883 61.02972984 49.34325409 C60.97541557 38.13796762 60.76288579 26.36288491 53.1875 17.41015625 C49.31213797 13.77187519 45.19337891 12.7046048 40.02734375 12.4765625 C32.83495576 12.75741976 27.60926452 15.88257331 22.52734375 20.8515625 C18.35878814 26.7592289 17.41158094 31.61786581 17.32202148 38.73144531 C17.31212189 39.41477936 17.30222229 40.0981134 17.29202271 40.80215454 C17.26052331 43.05296404 17.23569623 45.30379461 17.2109375 47.5546875 C17.19035798 49.11839333 17.16936124 50.68209372 17.14796448 52.24578857 C17.09284689 56.35566801 17.04339227 60.46559678 16.99511719 64.57556152 C16.94482673 68.77177304 16.88918009 72.96791315 16.83398438 77.1640625 C16.72652898 85.39317036 16.62555129 93.62233908 16.52734375 101.8515625 C9.92734375 101.8515625 3.32734375 101.8515625 -3.47265625 101.8515625 C-3.48200195 99.75312988 -3.49134766 97.65469727 -3.50097656 95.49267578 C-3.53487754 88.52758587 -3.59049855 81.56278815 -3.65655899 74.59793282 C-3.69592004 70.37875023 -3.72816381 66.1597728 -3.74365234 61.94042969 C-3.75889451 57.86176659 -3.79347193 53.78366792 -3.84096527 49.70525742 C-3.8557017 48.1561463 -3.86369278 46.60695456 -3.8645401 45.05777359 C-3.87567807 34.89661787 -4.8367904 26.74417268 -10.28515625 17.9140625 C-14.20799667 14.21538439 -18.46575256 12.69929737 -23.78515625 12.3515625 C-30.15837169 12.61258156 -35.79575595 15.21402838 -40.33203125 19.68359375 C-47.6721025 28.8950198 -47.93680373 38.20667506 -47.984375 49.5078125 C-48.00124316 51.02097003 -48.01939625 52.53411372 -48.03877258 54.04724121 C-48.08604718 58.0058154 -48.11600157 61.96433349 -48.14221191 65.9230957 C-48.172132 69.97228061 -48.21862265 74.02127266 -48.26367188 78.0703125 C-48.34944828 85.9973165 -48.41537286 93.92430134 -48.47265625 101.8515625 C-54.74265625 101.8515625 -61.01265625 101.8515625 -67.47265625 101.8515625 C-67.60443395 91.39240837 -67.73506938 80.93324156 -67.86380768 70.47404957 C-67.923658 65.61509646 -67.98396872 60.75615006 -68.04541016 55.8972168 C-68.10491671 51.18985535 -68.16311144 46.48247921 -68.22047424 41.77509117 C-68.24234774 39.99777355 -68.26465885 38.22046125 -68.28746033 36.44315529 C-68.45208309 23.57866379 -68.49813461 10.71707412 -68.47265625 -2.1484375 C-62.86265625 -2.1484375 -57.25265625 -2.1484375 -51.47265625 -2.1484375 C-50.81265625 2.4715625 -50.15265625 7.0915625 -49.47265625 11.8515625 C-48.50328125 10.6553125 -47.53390625 9.4590625 -46.53515625 8.2265625 C-34.83048991 -5.10966339 -15.59918992 -9.02998374 0 0 Z " fill="#534A42" transform="translate(214.47265625,1347.1484375)"/>
<path d="M0 0 C3.60463585 2.59639219 6.53579433 5.37563808 9.69921875 8.5390625 C10.02921875 4.5790625 10.35921875 0.6190625 10.69921875 -3.4609375 C16.63921875 -3.4609375 22.57921875 -3.4609375 28.69921875 -3.4609375 C28.61337178 9.05771456 28.5194455 21.57623684 28.41169167 34.09471989 C28.36196024 39.90890731 28.31563 45.72307857 28.27734375 51.53735352 C28.24019618 57.15901392 28.19376038 62.78053093 28.14115524 68.40206718 C28.12276658 70.53598934 28.10760279 72.66994205 28.09587479 74.80391121 C27.85475365 117.19939001 27.85475365 117.19939001 13.734375 132.6953125 C3.09534036 143.00728821 -11.03274189 145.94119103 -25.42578125 145.9140625 C-26.78449341 145.91164551 -26.78449341 145.91164551 -28.1706543 145.90917969 C-39.5558896 145.70481647 -50.38087915 143.32567206 -60.30078125 137.5390625 C-60.03941572 136.18303665 -59.76605982 134.82932158 -59.48828125 133.4765625 C-59.33746094 132.72246094 -59.18664062 131.96835938 -59.03125 131.19140625 C-58.0976214 127.80138583 -56.73499362 124.7493406 -55.30078125 121.5390625 C-54.27597656 121.96058594 -53.25117187 122.38210938 -52.1953125 122.81640625 C-50.83472944 123.3700228 -49.47404709 123.92339536 -48.11328125 124.4765625 C-47.43974609 124.75435547 -46.76621094 125.03214844 -46.07226562 125.31835938 C-35.27204197 129.69113285 -20.41968517 131.06085492 -9.36328125 126.7890625 C-3.42383 123.99141443 0.13418042 120.46545898 2.94921875 114.5390625 C3.69945312 112.9921875 3.69945312 112.9921875 4.46484375 111.4140625 C6.11839358 107.56275657 6.82677191 104.39650436 6.796875 100.2109375 C6.79365234 99.41171875 6.79042969 98.6125 6.78710938 97.7890625 C6.77873047 96.9640625 6.77035156 96.1390625 6.76171875 95.2890625 C6.75720703 94.44859375 6.75269531 93.608125 6.74804688 92.7421875 C6.73629836 90.67444849 6.71836397 88.60674626 6.69921875 86.5390625 C5.920625 87.32152344 5.14203125 88.10398437 4.33984375 88.91015625 C-4.63635951 97.84652429 -13.82673779 100.83995696 -26.3581543 100.85375977 C-38.27045307 100.61053414 -48.22428738 95.70099038 -56.5234375 87.28515625 C-67.47175349 74.53599576 -70.35456091 59.12342786 -69.50048828 42.76025391 C-68.14931266 27.73214167 -62.26503069 14.92813819 -51.30078125 4.5390625 C-37.06710069 -7.26324202 -15.97374435 -10.14292086 0 0 Z M-40.1015625 19.01171875 C-49.19586235 29.4628946 -50.16674048 42.21978476 -49.30078125 55.5390625 C-47.97240554 65.01629764 -44.55463653 72.93415146 -37.36328125 79.4140625 C-30.03160161 84.50135042 -22.60622301 86.34020233 -13.6875 85.20703125 C-6.11598735 83.38186102 -0.15410099 78.8978631 4.11328125 72.37890625 C7.98070926 64.93619408 7.94774189 57.78540731 7.99438477 49.54199219 C8.00585409 48.13401194 8.02622551 46.72607343 8.0559082 45.31835938 C8.27701075 34.81413569 7.76850339 25.76664096 0.44921875 17.6640625 C-12.23780485 6.26724469 -28.07061477 7.35850878 -40.1015625 19.01171875 Z " fill="#534A42" transform="translate(595.30078125,1348.4609375)"/>
<path d="M0 0 C4.02102106 2.94960935 7.22920692 5.84381038 10 10 C10.495 3.565 10.495 3.565 11 -3 C16.94 -3 22.88 -3 29 -3 C28.93847302 9.87529977 28.86114309 22.75040211 28.76428509 35.62548733 C28.71978049 41.60553548 28.68048173 47.5855186 28.65356445 53.56567383 C28.62733132 59.34948766 28.58679115 65.13304854 28.53681374 70.91670418 C28.52027916 73.11037076 28.50868224 75.30408096 28.50238609 77.49780083 C28.37450501 118.00249865 28.37450501 118.00249865 14.3125 133.5 C0.97490555 145.50126514 -16.21193608 147.04054489 -33.31152344 146.22021484 C-42.7392732 145.4479818 -51.81817538 142.77273103 -60 138 C-59.54762239 136.08191891 -59.08785537 134.16557967 -58.625 132.25 C-58.36976562 131.18265625 -58.11453125 130.1153125 -57.8515625 129.015625 C-57.12466459 126.44147278 -56.2973776 124.32399814 -55 122 C-53.97519531 122.42152344 -52.95039062 122.84304688 -51.89453125 123.27734375 C-50.53394819 123.8309603 -49.17326584 124.38433286 -47.8125 124.9375 C-47.13896484 125.21529297 -46.46542969 125.49308594 -45.77148438 125.77929688 C-34.9988701 130.14089192 -20.17567463 131.50938715 -9.125 127.3125 C-1.2374079 123.30632405 3.02152456 118.26105452 6 110 C7.90086755 102.0518129 8.29372216 94.14263096 8 86 C7.38125 86.86625 6.7625 87.7325 6.125 88.625 C-0.45738457 96.46823569 -10.56565267 100.42537802 -20.54296875 101.31640625 C-34.31342433 101.75155826 -44.65948601 98.16545558 -55 89 C-57.36487843 86.50485284 -59.22924468 83.94217806 -61 81 C-61.44988281 80.26265625 -61.89976563 79.5253125 -62.36328125 78.765625 C-70.3043549 64.42952744 -70.90698463 47.16072742 -67.09765625 31.48046875 C-62.43323551 16.69043716 -54.48635029 5.98146575 -40.9921875 -1.625 C-28.40885097 -7.40742096 -11.88807014 -7.36803111 0 0 Z M-38.5546875 18.49609375 C-47.11930679 27.72116876 -49.51379717 39.63901212 -49.24609375 51.921875 C-48.43964258 62.00891509 -45.39683659 71.51031461 -38.18359375 78.84765625 C-31.77561324 84.11644022 -24.64006013 86.39476474 -16.375 85.9375 C-7.54043047 84.73222117 -2.66346814 81.16953456 3.23828125 74.609375 C8.52728525 66.77555089 8.52921304 58.96706122 8.50097656 49.84667969 C8.50000485 47.63604063 8.54169539 45.42888924 8.5859375 43.21875 C8.67534591 32.68034471 6.82774207 25.0413857 -0.375 17.0625 C-11.51698782 6.87896274 -27.93629243 8.27788945 -38.5546875 18.49609375 Z " fill="#534A42" transform="translate(1178,1348)"/>
<path d="M0 0 C6.6 0 13.2 0 20 0 C20.33 20.46 20.66 40.92 21 62 C23.31 59.36 25.62 56.72 28 54 C30.625 51.9765625 30.625 51.9765625 33 50.625 C33.78375 50.16351562 34.5675 49.70203125 35.375 49.2265625 C45.53803019 44.47776566 59.47545383 44.00475768 70.125 47.625 C71.77637016 48.36007667 73.40448512 49.15047461 75 50 C75.78503906 50.4125 76.57007813 50.825 77.37890625 51.25 C88.93414405 58.13230745 94.28861058 69.1688901 98.109375 81.61328125 C102.21905558 98.77556749 99.71694904 119.34152455 90.76171875 134.5 C83.13223278 145.32676501 73.33221301 151.5963834 60.58203125 154.5625 C48.54394774 156.60223578 37.48280957 154.19033951 27.234375 147.6953125 C23.91279388 145.17509186 21.55878192 142.28048964 19 139 C18.67 139 18.34 139 18 139 C17.67 143.29 17.34 147.58 17 152 C11.39 152 5.78 152 0 152 C0 101.84 0 51.68 0 0 Z M26 73 C20.18108541 82.24095617 19.77362188 90.49116213 19.6875 101.1875 C19.65849609 102.36892578 19.62949219 103.55035156 19.59960938 104.76757812 C19.52219665 115.51603736 21.7519901 123.44092998 29.2109375 131.3125 C35.4513473 137.19865073 42.18459798 139.47068745 50.66796875 139.25390625 C59.61393554 138.27988976 66.97864602 133.98738933 72.6171875 127.03515625 C80.15792208 115.93706949 80.97992711 101.88408448 79 89 C76.84509503 79.2912162 72.76672452 71.7939236 64.9375 65.5625 C51.13531385 58.22091162 36.1345409 61.34196603 26 73 Z " fill="#534A42" transform="translate(319,1297)"/>
<path d="M0 0 C6.6 0 13.2 0 20 0 C20.33 50.16 20.66 100.32 21 152 C15.06 152 9.12 152 3 152 C2.01 145.07 2.01 145.07 1 138 C0.05125 139.19625 -0.8975 140.3925 -1.875 141.625 C-9.62974194 150.40541923 -19.29025925 153.99788494 -30.75 155.31640625 C-41.9336206 155.82031939 -52.36050864 151.9898247 -61 145 C-61.92039062 144.28263672 -61.92039062 144.28263672 -62.859375 143.55078125 C-72.420972 135.15265291 -77.21338721 121.11015939 -78.17578125 108.74072266 C-79.13893544 91.55186021 -76.97915369 74.64772083 -65.51953125 61.05859375 C-57.49557007 52.3303215 -47.86856467 46.30141848 -35.765625 45.6640625 C-23.10958872 45.41110856 -12.59989138 46.9775457 -3 56 C-2.34 56.99 -1.68 57.98 -1 59 C-0.67 39.53 -0.34 20.06 0 0 Z M-47.95703125 69.55859375 C-55.31257118 78.34867493 -58.40323185 89.03971574 -58.3125 100.3125 C-58.30686035 101.0537915 -58.3012207 101.79508301 -58.29541016 102.55883789 C-58.05459312 113.52555033 -55.04311025 123.83992632 -47.18359375 131.8515625 C-41.04426861 136.88704938 -33.95519464 139.41147558 -26 139 C-17.74994362 137.76961483 -10.69906852 134.01647838 -5.58325195 127.37280273 C0.17178655 118.74778821 0.62573001 109.58983331 0.5 99.5 C0.51546875 98.25863281 0.5309375 97.01726562 0.546875 95.73828125 C0.50484718 85.76718074 -1.01938677 75.96944888 -8.18359375 68.5 C-20.49109386 58.33638701 -36.4560743 58.50546167 -47.95703125 69.55859375 Z " fill="#534A42" transform="translate(1743,1297)"/>
<path d="M0 0 C6.6 0 13.2 0 20 0 C20.33 50.16 20.66 100.32 21 152 C15.06 152 9.12 152 3 152 C2.01 145.07 2.01 145.07 1 138 C0.05125 139.19625 -0.8975 140.3925 -1.875 141.625 C-9.62974194 150.40541923 -19.29025925 153.99788494 -30.75 155.31640625 C-41.77082214 155.81298399 -52.60128844 152.13730811 -61 145 C-72.0101527 134.78209076 -77.44154853 121.3787992 -78.31640625 106.515625 C-78.91286912 89.88943495 -75.849912 73.77368627 -64.8125 60.8125 C-55.69506176 51.21201868 -46.6872469 46.10110056 -33.43701172 45.59985352 C-21.38230888 45.41022062 -12.21543357 47.91628635 -3 56 C-2.34 56.66 -1.68 57.32 -1 58 C-0.67 38.86 -0.34 19.72 0 0 Z M-47.6953125 69.56640625 C-56.65367378 79.26754623 -58.46286154 91.46770381 -58.24609375 104.21875 C-57.57109973 114.59008676 -54.61026349 124.29321585 -47.18359375 131.84765625 C-40.77561324 137.11644022 -33.64006013 139.39476474 -25.375 138.9375 C-16.66362968 137.77189411 -10.46018848 133.85988146 -5 127 C-0.02717347 118.93799335 0.2401637 111.84784909 0.29516602 102.48510742 C0.30661682 101.13246136 0.32695806 99.77985798 0.35668945 98.42749023 C0.59664283 87.49017424 -0.25342431 76.78473741 -8.1796875 68.5 C-20.52503671 58.32700838 -36.06252393 58.81813847 -47.6953125 69.56640625 Z " fill="#534A42" transform="translate(2698,1297)"/>
<path d="M0 0 C6.6 0 13.2 0 20 0 C20.33 50.16 20.66 100.32 21 152 C15.06 152 9.12 152 3 152 C2.01 145.07 2.01 145.07 1 138 C-0.0725 139.36125 -1.145 140.7225 -2.25 142.125 C-9.664638 150.45826571 -19.65481719 154.17958264 -30.54296875 155.25 C-41.68622025 155.7645513 -52.48898735 152.23274269 -61 145 C-72.24815415 134.56121487 -77.44364187 120.99539598 -78.28125 105.82421875 C-78.87139681 87.62252288 -74.31820679 70.7578392 -61.6875 57.25 C-57.88051413 53.63545517 -53.73883498 51.21145632 -49 49 C-48.35933594 48.67902344 -47.71867187 48.35804687 -47.05859375 48.02734375 C-37.90454969 44.17583793 -25.18596669 44.51700972 -15.875 47.625 C-10.16724318 50.0875145 -5.37984192 53.62015808 -1 58 C-0.67 38.86 -0.34 19.72 0 0 Z M-49.125 71.1875 C-57.64860046 81.6746524 -58.91240195 94.93672134 -58 108 C-56.57888806 117.81642032 -53.0819526 126.99789453 -45.25 133.4375 C-38.15858926 138.17407795 -31.02896589 139.69401656 -22.6015625 138.56640625 C-15.14628094 136.94325936 -9.72193008 132.93237408 -5 127 C0.02578155 118.85214204 0.24205024 111.39032928 0.29516602 102.00292969 C0.30663534 100.59494944 0.32700676 99.18701093 0.35668945 97.77929688 C0.58868295 86.75766166 -0.30153508 76.90816749 -8.1796875 68.53515625 C-20.94191414 57.77216254 -37.8332603 59.02500425 -49.125 71.1875 Z " fill="#534A42" transform="translate(2538,1297)"/>
<path d="M0 0 C9.08040931 6.26897489 15.10498451 14.40491466 18.84375 24.71484375 C19.1634375 25.57078125 19.483125 26.42671875 19.8125 27.30859375 C24.77267078 43.29136625 23.23613589 62.94715606 16.30078125 78.08203125 C9.88637673 89.85400477 0.8300471 98.27062677 -12.078125 102.15625 C-25.09420694 105.65493368 -37.40277946 103.72153641 -49.0859375 97.19140625 C-51.15625 95.71484375 -51.15625 95.71484375 -56.15625 90.71484375 C-56.48625 108.20484375 -56.81625 125.69484375 -57.15625 143.71484375 C-63.75625 143.71484375 -70.35625 143.71484375 -77.15625 143.71484375 C-77.48625 95.20484375 -77.81625 46.69484375 -78.15625 -3.28515625 C-72.21625 -3.28515625 -66.27625 -3.28515625 -60.15625 -3.28515625 C-59.49625 1.66484375 -58.83625 6.61484375 -58.15625 11.71484375 C-56.609375 9.70390625 -56.609375 9.70390625 -55.03125 7.65234375 C-41.76483219 -7.39719473 -16.91898555 -10.08396059 0 0 Z M-50.15625 20.71484375 C-56.56953324 30.19017204 -57.51999433 38.72043121 -57.53125 49.96484375 C-57.55574219 51.23714844 -57.58023438 52.50945312 -57.60546875 53.8203125 C-57.63691322 63.97687771 -56.02069855 72.55158233 -48.93359375 80.1796875 C-41.7436656 86.38988917 -34.53796708 88.10108879 -25.25390625 87.98828125 C-17.13445901 87.27155829 -10.44321951 82.77523457 -5.15625 76.71484375 C0.46454581 67.9697985 2.223382 59.0711495 2.15625 48.83984375 C2.15133545 47.95651367 2.1464209 47.07318359 2.14135742 46.16308594 C1.94999297 35.53696121 -0.53539385 26.60786767 -8.01171875 18.76953125 C-15.09634361 12.21933651 -21.29431483 10.11283743 -30.9375 10.3671875 C-38.58213715 11.19288253 -45.07719415 14.97715721 -50.15625 20.71484375 Z " fill="#534A42" transform="translate(862.15625,1348.28515625)"/>
<path d="M0 0 C11.41662705 8.37848333 18.29225825 19.75426002 21.078125 33.68359375 C23.34925968 51.64620442 21.91173175 71.19607221 10.546875 86.0390625 C2.20709758 95.81473203 -7.48453696 102.12540682 -20.44921875 103.421875 C-31.6802424 104.16337576 -42.15985756 102.04711751 -51.44921875 95.421875 C-53.09921875 93.771875 -54.74921875 92.121875 -56.44921875 90.421875 C-56.77921875 107.911875 -57.10921875 125.401875 -57.44921875 143.421875 C-64.04921875 143.421875 -70.64921875 143.421875 -77.44921875 143.421875 C-77.77921875 94.911875 -78.10921875 46.401875 -78.44921875 -3.578125 C-72.50921875 -3.578125 -66.56921875 -3.578125 -60.44921875 -3.578125 C-59.78921875 1.371875 -59.12921875 6.321875 -58.44921875 11.421875 C-56.90234375 9.4109375 -56.90234375 9.4109375 -55.32421875 7.359375 C-42.1356019 -7.60190541 -16.64310601 -10.7237876 0 0 Z M-51.44921875 21.421875 C-57.34783989 30.76719637 -57.68126515 38.69100263 -57.76171875 49.546875 C-57.79072266 50.82820313 -57.81972656 52.10953125 -57.84960938 53.4296875 C-57.91764724 63.64583469 -56.35837714 72.21049078 -49.2265625 79.88671875 C-42.03663435 86.09692042 -34.83093583 87.80812004 -25.546875 87.6953125 C-17.42742776 86.97858954 -10.73618826 82.48226582 -5.44921875 76.421875 C0.12568745 67.74822653 1.94528094 58.82926101 1.92578125 48.671875 C1.92416992 47.79515137 1.92255859 46.91842773 1.92089844 46.01513672 C1.72616122 35.66160774 -0.77781104 26.15533313 -8.234375 18.6171875 C-15.42378775 11.94031477 -21.4927546 9.85688292 -31.3046875 10.1484375 C-39.94978479 10.90018509 -45.73320738 14.94372878 -51.44921875 21.421875 Z " fill="#534A42" transform="translate(2213.44921875,1348.578125)"/>
<path d="M0 0 C6.6 0 13.2 0 20 0 C20.33 30.69 20.66 61.38 21 93 C24.96 88.05 24.96 88.05 29 83 C30.738916 80.90740617 32.48755345 78.8228145 34.25 76.75 C34.7047168 76.21479736 35.15943359 75.67959473 35.62792969 75.12817383 C37.08323706 73.41702362 38.54119107 71.7081657 40 70 C40.76763672 69.10063721 40.76763672 69.10063721 41.55078125 68.18310547 C43.11608095 66.35028712 44.68264416 64.51856024 46.25 62.6875 C46.72083008 62.13739258 47.19166016 61.58728516 47.67675781 61.02050781 C48.61556836 59.9259921 49.56388904 58.8395665 50.52124023 57.76123047 C52.06634224 55.97855217 52.06634224 55.97855217 53.49633789 53.82080078 C55.92520731 50.50480542 57.60756805 48.3256029 61.71142578 47.3659668 C64.82481191 47.21335975 67.82731437 47.29921831 70.9375 47.5 C72.00291016 47.53609375 73.06832031 47.5721875 74.16601562 47.609375 C76.78111316 47.70319016 79.38863981 47.83426006 82 48 C80.68839942 50.8772993 79.26501299 53.00810299 77.0859375 55.29296875 C76.49731934 55.91518311 75.90870117 56.53739746 75.30224609 57.1784668 C74.66625488 57.84144775 74.03026367 58.50442871 73.375 59.1875 C72.02077473 60.61452773 70.6666102 62.04161309 69.3125 63.46875 C68.25482422 64.57863281 68.25482422 64.57863281 67.17578125 65.7109375 C64.98316507 68.01771144 62.80220811 70.3349333 60.625 72.65625 C59.91424316 73.41397705 59.20348633 74.1717041 58.47119141 74.95239258 C57.10366265 76.41054839 55.73614892 77.8687183 54.36865234 79.3269043 C50.96730884 82.94371555 47.53442206 86.5129744 44 90 C45.59492831 95.21418871 48.89281777 98.94438363 52.25 103.125 C59.09617311 111.78636575 65.67488024 120.61692296 72.18847656 129.52978516 C74.11404848 132.15551785 76.05169911 134.77199287 77.9921875 137.38671875 C78.641875 138.26336182 79.2915625 139.14000488 79.9609375 140.04321289 C81.21712093 141.73761847 82.47488231 143.43085556 83.734375 145.12280273 C84.29382812 145.87891846 84.85328125 146.63503418 85.4296875 147.4140625 C85.92710449 148.0838916 86.42452148 148.7537207 86.93701172 149.44384766 C88 151 88 151 88 152 C81.94242739 152.46300825 75.90396037 152.72337251 69.828125 152.59765625 C68.8268457 152.57968994 67.82556641 152.56172363 66.79394531 152.54321289 C63.30800862 151.86545956 61.74124636 150.54941978 59.25 148.0625 C58.12361485 146.06534328 57.04574537 144.04053794 56 142 C54.17696832 139.28086545 52.2348348 136.64948279 50.3125 134 C49.28908925 132.54217056 48.26831027 131.0824905 47.25 129.62109375 C43.26828583 123.93590052 39.18761866 118.32282549 35.10083008 112.71289062 C34.57900146 111.99423828 34.05717285 111.27558594 33.51953125 110.53515625 C33.05651611 109.899729 32.59350098 109.26430176 32.11645508 108.60961914 C31 107 31 107 30 105 C25.91865951 106.51160759 23.16147215 109.29037289 21 113 C20.29003008 116.04540329 20.27805503 118.99951258 20.29296875 122.1171875 C20.27784744 122.97434357 20.26272614 123.83149963 20.24714661 124.71463013 C20.20438015 127.43502333 20.19544258 130.1543046 20.1875 132.875 C20.16434701 134.72659183 20.13898 136.57815739 20.11132812 138.4296875 C20.04444047 142.95372527 20.02337012 147.47469427 20 152 C13.4 152 6.8 152 0 152 C0 101.84 0 51.68 0 0 Z " fill="#534A42" transform="translate(2787,1297)"/>
<path d="M0 0 C2.21447683 1.42565992 4.30278784 2.93574451 6.390625 4.5390625 C7.256875 5.1165625 8.123125 5.6940625 9.015625 6.2890625 C18.93676448 15.68803675 24.19295767 29.05664124 24.69140625 42.58984375 C24.71085449 44.34364652 24.71437706 46.09768799 24.703125 47.8515625 C24.69748535 48.77509521 24.6918457 49.69862793 24.68603516 50.65014648 C24.41481374 65.93656139 19.49197716 79.19960807 8.8046875 90.3515625 C-2.09955488 100.23242938 -15.92647362 103.9302348 -30.36328125 103.75 C-44.30814491 102.84383557 -55.73257368 97.5964178 -65.31640625 87.43359375 C-75.91707987 74.05182348 -78.78083826 58.15106239 -77.609375 41.5390625 C-75.67323492 26.22742133 -69.4530159 13.55213159 -57.3828125 3.7265625 C-41.1484261 -7.74650209 -17.54521958 -9.82322174 0 0 Z M-48.01171875 18.359375 C-56.92613482 30.52134118 -59.38185173 44.01796377 -57.109375 58.7890625 C-54.69166486 69.55886222 -49.94360242 78.41600343 -40.76953125 84.82421875 C-33.93350501 88.7245282 -26.16485555 89.42205801 -18.546875 87.6640625 C-10.06885238 84.65834065 -4.22688618 78.36433253 -0.109375 70.5390625 C5.77402711 57.34295721 6.23682052 43.24075585 1.390625 29.5390625 C-1.98386836 21.62816231 -7.0286142 15.1379134 -14.734375 11.1015625 C-26.23202085 6.57693526 -39.67937919 9.18001274 -48.01171875 18.359375 Z " fill="#534A42" transform="translate(1447.609375,1348.4609375)"/>
<path d="M0 0 C10.99430551 7.36868006 16.81683659 17.77170147 19.96484375 30.53515625 C21.4443968 38.71215278 20.85488449 44.50759535 20.17578125 53.3359375 C-3.91421875 53.3359375 -28.00421875 53.3359375 -52.82421875 53.3359375 C-48.73242446 71.28894582 -48.73242446 71.28894582 -36.82421875 83.3359375 C-22.22882077 91.31974494 -4.01076183 87.35696073 11.17578125 83.3359375 C11.65884025 84.73042859 12.13703642 86.12660457 12.61328125 87.5234375 C12.88011719 88.30074219 13.14695312 89.07804687 13.421875 89.87890625 C14.17980036 92.34903606 14.71107903 94.79586614 15.17578125 97.3359375 C-2.81370132 105.22068944 -24.48865707 107.2319912 -43.07421875 100.1484375 C-55.68513378 94.44943374 -63.86981139 85.30004902 -68.82421875 72.44140625 C-73.99944656 56.36989801 -73.04034081 37.28419803 -66.17578125 21.7734375 C-59.24840922 9.28014227 -50.12589764 0.91968864 -36.69140625 -3.75390625 C-24.90643865 -6.52754004 -10.53216787 -6.20567567 0 0 Z M-44.2890625 18.2890625 C-49.53234655 25.2801079 -50.83802383 30.46018322 -51.82421875 39.3359375 C-34.33421875 39.3359375 -16.84421875 39.3359375 1.17578125 39.3359375 C1.17578125 30.34075656 0.31500251 24.12760419 -5.13671875 16.9609375 C-10.43235293 11.7884576 -16.04862611 9.25244607 -23.44921875 9.0234375 C-31.76064978 9.14584444 -38.69821444 12.10344337 -44.2890625 18.2890625 Z " fill="#534A42" transform="translate(1294.82421875,1347.6640625)"/>
<path d="M0 0 C10.2196534 7.22895215 15.71331984 17.7767178 18.20703125 29.83203125 C19.52695677 37.71517265 20.10023903 44.64333608 18.5234375 52.52734375 C-5.5665625 52.52734375 -29.6565625 52.52734375 -54.4765625 52.52734375 C-50.50365151 70.40918851 -50.50365151 70.40918851 -38.4765625 82.52734375 C-24.95595424 89.37268315 -9.66550872 87.50228133 4.36328125 83.40234375 C7.5234375 82.52734375 7.5234375 82.52734375 10.5234375 82.52734375 C11.5134375 87.14734375 12.5034375 91.76734375 13.5234375 96.52734375 C-4.58998198 104.29023781 -26.02217443 106.468686 -44.7265625 99.33984375 C-56.54090846 93.97675249 -65.08598048 85.27636898 -69.8515625 73.08984375 C-75.53150597 55.42170102 -74.99574454 36.64183123 -66.6640625 19.96484375 C-60.18541549 7.62140927 -51.64596313 0.43754093 -38.4765625 -4.47265625 C-26.22733405 -7.98808654 -10.86405372 -6.46017075 0 0 Z M-46.4765625 18.52734375 C-50.78802821 25.33590566 -52.45984457 30.39360027 -53.4765625 38.52734375 C-35.9865625 38.52734375 -18.4965625 38.52734375 -0.4765625 38.52734375 C-0.4765625 28.71408796 -1.79861063 21.28839562 -8.65625 14 C-14.28619835 9.4452993 -20.96804765 7.85816801 -28.1015625 8.21484375 C-35.72915663 9.21847456 -41.48042315 12.67619499 -46.4765625 18.52734375 Z " fill="#534A42" transform="translate(110.4765625,1348.47265625)"/>
<path d="M0 0 C10.59511918 8.42793571 16.24949203 18.85145751 18.75 32.1875 C18.75 38.7875 18.75 45.3875 18.75 52.1875 C-5.34 52.1875 -29.43 52.1875 -54.25 52.1875 C-50.97922872 67.4510993 -49.27155326 74.78319968 -36.60546875 83.07421875 C-30.44858005 85.98419102 -24.26397466 86.54741437 -17.5625 86.5 C-16.78302002 86.49798584 -16.00354004 86.49597168 -15.20043945 86.49389648 C-8.27036137 86.37518451 -1.91629159 85.04943094 4.75 83.1875 C6.41362417 82.83929959 8.07947297 82.500914 9.75 82.1875 C10.28532823 83.74509343 10.80265378 85.30888045 11.3125 86.875 C11.60253906 87.74511719 11.89257812 88.61523438 12.19140625 89.51171875 C12.80141961 92.43381074 12.52703633 94.33150553 11.75 97.1875 C-5.27001493 103.94303579 -26.1427545 106.03895787 -43.5390625 99.4140625 C-56.75519599 93.43442862 -64.48415203 85.58154995 -70.25 72.1875 C-76.08275506 54.4831304 -74.26596635 35.61421074 -66.5625 18.8125 C-61.30791451 9.11983103 -54.22718759 1.91846689 -44.25 -2.8125 C-43.18458984 -3.32103516 -43.18458984 -3.32103516 -42.09765625 -3.83984375 C-28.60258352 -8.98647078 -12.29102087 -6.85460779 0 0 Z M-45.71875 17.140625 C-50.71967178 23.82553065 -52.42260654 29.96422942 -54.25 38.1875 C-36.43 38.1875 -18.61 38.1875 -0.25 38.1875 C-0.25 29.08954303 -1.69736014 22.04658786 -7.50390625 14.87890625 C-12.31774929 10.21583234 -18.7636471 8.10676329 -25.375 7.875 C-33.4429398 8.00769638 -40.31352505 11.17448048 -45.71875 17.140625 Z " fill="#534A42" transform="translate(2318.25,1348.8125)"/>
<path d="M0 0 C10.59511918 8.42793571 16.24949203 18.85145751 18.75 32.1875 C18.75 38.7875 18.75 45.3875 18.75 52.1875 C-5.34 52.1875 -29.43 52.1875 -54.25 52.1875 C-50.92921336 69.0637131 -50.92921336 69.0637131 -40.25 81.1875 C-27.52717673 88.38909808 -11.70486278 87.66352169 2.05078125 83.94140625 C2.94152344 83.69261719 3.83226562 83.44382812 4.75 83.1875 C6.41362417 82.83929959 8.07947297 82.500914 9.75 82.1875 C11.51615118 86.89723649 12.23594831 91.21833364 12.75 96.1875 C-3.30994644 104.17868108 -24.34636235 105.73094916 -41.4296875 100.1484375 C-53.89744069 95.32923115 -63.52370863 87.26851792 -69.18359375 74.99609375 C-75.83038703 57.49043673 -74.70552343 39.03613639 -67.9296875 21.8359375 C-62.11788385 9.29133399 -52.85007408 0.19370093 -39.8125 -4.75 C-26.31095076 -8.2119357 -12.06899674 -6.73078665 0 0 Z M-45.71875 17.140625 C-50.71967178 23.82553065 -52.42260654 29.96422942 -54.25 38.1875 C-36.43 38.1875 -18.61 38.1875 -0.25 38.1875 C-0.25 29.75854568 -1.35594062 22.63780832 -6.5 15.75 C-12.55842748 10.10464712 -19.54631105 7.77913341 -27.75 7.9140625 C-34.92318495 8.6986296 -40.89598956 11.81738942 -45.71875 17.140625 Z " fill="#534A42" transform="translate(967.25,1348.8125)"/>
<path d="M0 0 C0.72960938 0.42410156 1.45921875 0.84820313 2.2109375 1.28515625 C10.66094652 6.92373104 14.92786293 15.25052057 17 25 C17.77556357 29.77508344 18.14411324 34.38494591 18.20532227 39.22045898 C18.21522186 39.90423111 18.22512146 40.58800323 18.23532104 41.29249573 C18.26662116 43.52699456 18.29156724 45.76151457 18.31640625 47.99609375 C18.33700307 49.55551164 18.35800021 51.1149243 18.37937927 52.67433167 C18.43431848 56.75950857 18.48385073 60.84473348 18.53222656 64.92999268 C18.58264842 69.10636621 18.63822603 73.28267085 18.69335938 77.45898438 C18.80059612 85.639266 18.90163919 93.81960683 19 102 C13.06 102 7.12 102 1 102 C0.01 97.05 0.01 97.05 -1 92 C-1.94875 92.886875 -2.8975 93.77375 -3.875 94.6875 C-12.51536053 102.05619457 -22.94251119 105.6215549 -34.26171875 105.3046875 C-44.32304264 104.18516787 -52.43047577 100.83234854 -59 93 C-64.13399058 85.1059532 -64.73472983 77.27858816 -64 68 C-61.8902657 58.18846458 -56.78473582 51.48673421 -48.6875 45.75 C-34.28062295 36.81531491 -18.52345861 35.45393711 -2 36 C-3.33863187 24.05242985 -3.33863187 24.05242985 -10.5 14.75 C-20.94715975 9.52642013 -31.16386229 11.0163036 -42 14 C-44.79761999 15.17751785 -47.33579541 16.53729944 -50 18 C-53 17 -53 17 -53.94921875 15.328125 C-54.19285156 14.64234375 -54.43648437 13.9565625 -54.6875 13.25 C-55.06455078 12.23679687 -55.06455078 12.23679687 -55.44921875 11.203125 C-56.06673705 8.73305181 -56.09311849 6.53637036 -56 4 C-40.44975028 -4.70401146 -16.33895297 -9.5360071 0 0 Z M-39.5625 59.55078125 C-44.00562437 64.63765375 -44.29197778 68.77703797 -44.21484375 75.2734375 C-43.82901229 80.16998942 -42.13317617 82.92646468 -38.625 86.25 C-33.15157843 89.89894771 -28.49666519 90.81337013 -22 90 C-13.83018499 87.917009 -8.28843898 84.0156013 -3.68359375 76.9921875 C0.47642489 68.67215023 -0.66586681 59.0401592 -1 50 C-14.71557855 49.56123149 -29.11079419 49.17746324 -39.5625 59.55078125 Z " fill="#534A42" transform="translate(2942,1347)"/>
<path d="M0 0 C0.92490234 -0.01611328 1.84980469 -0.03222656 2.80273438 -0.04882812 C13.37908186 -0.05623972 21.61275866 2.52736126 29.625 9.5625 C38.34736284 19.40311449 40.50037045 29.66948781 40.5390625 42.58203125 C40.55464203 43.7388591 40.57022156 44.89568695 40.58627319 46.08757019 C40.63345251 49.76670606 40.66137279 53.44565999 40.6875 57.125 C40.73644105 61.94408328 40.79317461 66.76305414 40.8515625 71.58203125 C40.8708078 73.32904831 40.8708078 73.32904831 40.89044189 75.11135864 C41.02283508 85.53132524 41.49503028 95.90733798 42.0625 106.3125 C36.1225 106.3125 30.1825 106.3125 24.0625 106.3125 C23.4025 102.6825 22.7425 99.0525 22.0625 95.3125 C21.11375 96.364375 20.165 97.41625 19.1875 98.5 C11.36496364 106.29099387 1.43848508 109.2605005 -9.375 109.625 C-18.36751319 109.43608166 -26.20972913 106.88743345 -32.75 100.55859375 C-39.83450419 93.01654866 -41.43400678 86.56638602 -41.35961914 76.31860352 C-41.06305164 68.00207304 -38.56576268 61.03359935 -32.796875 54.96484375 C-20.24416581 43.80981017 -3.43351009 40.06693605 13 40.25 C13.77923828 40.25451172 14.55847656 40.25902344 15.36132812 40.26367188 C17.26175268 40.27533092 19.16213706 40.29326123 21.0625 40.3125 C20.22984651 32.8559016 19.40460411 25.93933555 14.0625 20.3125 C7.03337239 15.04832801 -0.84452424 14.89433833 -9.25 15.9375 C-15.09768051 16.92816587 -20.19614931 18.82441081 -25.57421875 21.2890625 C-27.9375 22.3125 -27.9375 22.3125 -29.9375 22.3125 C-30.66447561 20.57016175 -31.36848244 18.81822655 -32.0625 17.0625 C-32.45695312 16.08796875 -32.85140625 15.1134375 -33.2578125 14.109375 C-33.9375 11.3125 -33.9375 11.3125 -33.40234375 9.1171875 C-31.37643499 6.62126791 -29.3535577 5.86675017 -26.375 4.6875 C-25.38371094 4.28273438 -24.39242188 3.87796875 -23.37109375 3.4609375 C-15.52303608 0.83598988 -8.26435264 -0.02867576 0 0 Z M-16.9375 63.3125 C-20.47341324 67.39239989 -21.74994807 71.96726998 -21.9375 77.3125 C-21.3471104 83.65604787 -18.74246569 88.15280548 -13.9375 92.3125 C-8.0821653 95.30522662 -1.08512846 95.22650454 5.125 93.25 C12.00663405 90.31053955 17.08504978 85.40573623 20.28613281 78.68237305 C21.77449951 74.1391103 21.47383939 69.54098533 21.3125 64.8125 C21.29445313 63.79929687 21.27640625 62.78609375 21.2578125 61.7421875 C21.21106583 59.26461393 21.14556372 56.78907684 21.0625 54.3125 C7.3125913 53.84137369 -5.69324062 54.23632088 -16.9375 63.3125 Z " fill="#534A42" transform="translate(468.9375,1342.6875)"/>
<path d="M0 0 C8.13404008 6.70909875 12.43867908 14.72756068 14.23828125 25.08203125 C14.55327516 29.5405762 14.58647176 33.99244936 14.6171875 38.4609375 C14.64316841 40.42522502 14.66915343 42.3895125 14.69536495 44.35379696 C14.72960146 47.0927291 14.75525606 49.83171558 14.78088379 52.57073975 C14.82658399 57.33379389 14.88283842 62.09672007 14.94358826 66.85960388 C14.97496293 69.38629419 15.00201934 71.91304353 15.02381897 74.43983459 C15.12246196 83.02670913 15.61014654 91.52009632 16.23828125 100.08203125 C10.29828125 100.08203125 4.35828125 100.08203125 -1.76171875 100.08203125 C-2.75171875 94.63703125 -2.75171875 94.63703125 -3.76171875 89.08203125 C-5.74171875 90.93828125 -5.74171875 90.93828125 -7.76171875 92.83203125 C-16.69691548 100.73409586 -26.10758685 103.61009295 -38 103.328125 C-46.19298529 102.598057 -53.64585088 99.64828958 -59.76171875 94.08203125 C-66.49102367 85.6091591 -68.60365272 76.85661437 -67.421875 66.20703125 C-65.45369413 56.89019874 -60.71841002 49.30612148 -52.76171875 44.08203125 C-40.35896585 36.66848773 -27.16232951 33.85980936 -12.82421875 34.01953125 C-12.04498047 34.02404297 -11.26574219 34.02855469 -10.46289062 34.03320312 C-8.56246607 34.04486217 -6.66208169 34.06279248 -4.76171875 34.08203125 C-6.37192877 22.04098064 -6.37192877 22.04098064 -13.48046875 12.8828125 C-22.49788716 7.78367709 -31.97524332 8.72056154 -41.76171875 11.08203125 C-45.04879816 12.28005564 -48.21863055 13.60135772 -51.3984375 15.05859375 C-53.76171875 16.08203125 -53.76171875 16.08203125 -55.76171875 16.08203125 C-56.48869436 14.339693 -57.19270119 12.5877578 -57.88671875 10.83203125 C-58.28117187 9.8575 -58.675625 8.88296875 -59.08203125 7.87890625 C-59.76171875 5.08203125 -59.76171875 5.08203125 -59.2265625 2.88671875 C-57.20065374 0.39079916 -55.17777645 -0.36371858 -52.19921875 -1.54296875 C-51.20792969 -1.94773437 -50.21664063 -2.3525 -49.1953125 -2.76953125 C-34.07851822 -7.82566039 -13.58616773 -9.4353725 0 0 Z M-43.63671875 57.89453125 C-47.34868067 63.46247413 -48.27793194 68.35290607 -47.2890625 74.875 C-46.23511548 79.28596344 -44.69140583 82.60638819 -41.03515625 85.40234375 C-35.24328748 88.70209369 -29.87177199 88.9178572 -23.4375 87.609375 C-16.03665817 85.51100389 -10.95176353 81.49411129 -6.82421875 75.01953125 C-2.97981158 66.89099713 -4.36859239 56.84693471 -4.76171875 48.08203125 C-17.9031984 47.63175212 -33.98929288 47.38023523 -43.63671875 57.89453125 Z " fill="#534A42" transform="translate(1846.76171875,1348.91796875)"/>
<path d="M0 0 C8.57439055 7.07230754 12.50354927 15.1950216 14.23828125 26.08203125 C14.54636218 30.5853708 14.58611584 35.08095799 14.6171875 39.59375 C14.64316661 41.55936442 14.6691499 43.5249788 14.69536495 45.4905901 C14.72956172 48.22624252 14.7552445 50.96194889 14.78088379 53.69769287 C14.8266551 58.46366584 14.88276841 63.22951292 14.94358826 67.99531555 C14.97499958 70.52308372 15.00204646 73.05091157 15.02381897 75.57878113 C15.11842295 83.79195342 15.58924437 91.89370352 16.23828125 100.08203125 C10.29828125 100.08203125 4.35828125 100.08203125 -1.76171875 100.08203125 C-2.75171875 94.63703125 -2.75171875 94.63703125 -3.76171875 89.08203125 C-5.74171875 90.93828125 -5.74171875 90.93828125 -7.76171875 92.83203125 C-16.69691548 100.73409586 -26.10758685 103.61009295 -38 103.328125 C-46.19298529 102.598057 -53.64585088 99.64828958 -59.76171875 94.08203125 C-66.49102367 85.6091591 -68.60365272 76.85661437 -67.421875 66.20703125 C-65.45369413 56.89019874 -60.71841002 49.30612148 -52.76171875 44.08203125 C-40.35896585 36.66848773 -27.16232951 33.85980936 -12.82421875 34.01953125 C-12.04498047 34.02404297 -11.26574219 34.02855469 -10.46289062 34.03320312 C-8.56246607 34.04486217 -6.66208169 34.06279248 -4.76171875 34.08203125 C-6.37192877 22.04098064 -6.37192877 22.04098064 -13.48046875 12.8828125 C-22.49788716 7.78367709 -31.97524332 8.72056154 -41.76171875 11.08203125 C-45.04879816 12.28005564 -48.21863055 13.60135772 -51.3984375 15.05859375 C-53.76171875 16.08203125 -53.76171875 16.08203125 -55.76171875 16.08203125 C-56.43432226 14.31344434 -57.0996027 12.54207109 -57.76171875 10.76953125 C-58.13296875 9.78339844 -58.50421875 8.79726562 -58.88671875 7.78125 C-59.76171875 5.08203125 -59.76171875 5.08203125 -59.76171875 2.08203125 C-42.32823288 -6.6003938 -17.25608122 -11.98406772 0 0 Z M-42.546875 56.9765625 C-46.98535272 62.63221142 -48.25459194 66.81215171 -47.76171875 74.08203125 C-45.79092434 80.09814051 -43.03508254 84.17256904 -37.51171875 87.39453125 C-30.2999661 89.19746941 -23.43938024 88.2985605 -16.76171875 85.08203125 C-10.64574757 81.36086806 -6.52647191 76.02180383 -4.76171875 69.08203125 C-4.18790905 62.09705399 -4.44805385 55.0753109 -4.76171875 48.08203125 C-17.2453492 47.65429264 -33.25765321 47.11819802 -42.546875 56.9765625 Z " fill="#534A42" transform="translate(2057.76171875,1348.91796875)"/>
<path d="M0 0 C8.13992474 6.71395252 12.42691729 14.72480829 14.23828125 25.08203125 C14.5521936 29.45600773 14.5864236 33.82298262 14.6171875 38.20703125 C14.63418198 39.46733154 14.65117645 40.72763184 14.66868591 42.02612305 C14.71267729 45.36704194 14.74901374 48.70784613 14.78088379 52.04888916 C14.83910096 57.99757718 14.91457314 63.94606889 14.9921875 69.89453125 C15.0160704 71.77543457 15.0160704 71.77543457 15.04043579 73.69433594 C15.17006533 82.52473229 15.55885605 91.27757908 16.23828125 100.08203125 C10.29828125 100.08203125 4.35828125 100.08203125 -1.76171875 100.08203125 C-2.75171875 94.63703125 -2.75171875 94.63703125 -3.76171875 89.08203125 C-5.74171875 90.93828125 -5.74171875 90.93828125 -7.76171875 92.83203125 C-16.69691548 100.73409586 -26.10758685 103.61009295 -38 103.328125 C-47.09590738 102.5175986 -55.6097895 98.98966497 -61.5859375 91.92578125 C-66.93888373 83.94172585 -68.54701613 74.8735994 -67.26171875 65.39453125 C-65.24449773 56.58043177 -60.34559506 49.03909007 -52.76171875 44.08203125 C-40.29776102 36.71943213 -27.20132346 33.85937499 -12.82421875 34.01953125 C-12.04498047 34.02404297 -11.26574219 34.02855469 -10.46289062 34.03320312 C-8.56246607 34.04486217 -6.66208169 34.06279248 -4.76171875 34.08203125 C-6.37192877 22.04098064 -6.37192877 22.04098064 -13.48046875 12.8828125 C-22.49788716 7.78367709 -31.97524332 8.72056154 -41.76171875 11.08203125 C-45.04879816 12.28005564 -48.21863055 13.60135772 -51.3984375 15.05859375 C-53.76171875 16.08203125 -53.76171875 16.08203125 -55.76171875 16.08203125 C-56.48869436 14.339693 -57.19270119 12.5877578 -57.88671875 10.83203125 C-58.28117188 9.8575 -58.675625 8.88296875 -59.08203125 7.87890625 C-59.76171875 5.08203125 -59.76171875 5.08203125 -59.2265625 2.88671875 C-57.20065374 0.39079916 -55.17777645 -0.36371858 -52.19921875 -1.54296875 C-51.20792969 -1.94773437 -50.21664062 -2.3525 -49.1953125 -2.76953125 C-34.07851822 -7.82566039 -13.58616773 -9.4353725 0 0 Z M-42.546875 56.9765625 C-46.98535272 62.63221142 -48.25459194 66.81215171 -47.76171875 74.08203125 C-45.79092434 80.09814051 -43.03508254 84.17256904 -37.51171875 87.39453125 C-30.3441069 89.18643421 -23.37171971 88.37531187 -16.76171875 85.08203125 C-10.47860651 80.97127165 -6.94500833 76.2706611 -4.76171875 69.08203125 C-4.32722324 65.37084147 -4.37676041 61.74905311 -4.51171875 58.01953125 C-4.52976562 57.05853516 -4.5478125 56.09753906 -4.56640625 55.10742188 C-4.61303079 52.76453898 -4.67843706 50.42384835 -4.76171875 48.08203125 C-17.2453492 47.65429264 -33.25765321 47.11819802 -42.546875 56.9765625 Z " fill="#534A42" transform="translate(706.76171875,1348.91796875)"/>
<path d="M0 0 C0.92490234 -0.01611328 1.84980469 -0.03222656 2.80273438 -0.04882812 C14.25462248 -0.05685327 22.45859004 3.07547393 30.75 10.90625 C37.49974381 18.06097844 40.12951209 27.37869539 40.25195312 37.04223633 C40.26867065 38.17143997 40.28538818 39.30064362 40.3026123 40.46406555 C40.31618774 41.67861923 40.32976318 42.89317291 40.34375 44.14453125 C40.36215942 45.40907639 40.38056885 46.67362152 40.39953613 47.97648621 C40.45822823 52.02594482 40.51105834 56.0754449 40.5625 60.125 C40.82175895 83.23791862 40.82175895 83.23791862 42.0625 106.3125 C36.1225 106.3125 30.1825 106.3125 24.0625 106.3125 C23.4025 102.6825 22.7425 99.0525 22.0625 95.3125 C21.11375 96.364375 20.165 97.41625 19.1875 98.5 C11.36496364 106.29099387 1.43848508 109.2605005 -9.375 109.625 C-18.36751319 109.43608166 -26.20972913 106.88743345 -32.75 100.55859375 C-39.83193858 93.01927997 -41.44233906 86.56307942 -41.35742188 76.31640625 C-41.02968628 67.32468602 -38.1506393 60.63090147 -31.97265625 54.125 C-17.28023006 41.03999856 2.39218583 39.91431794 21.0625 40.3125 C19.45228998 28.27144939 19.45228998 28.27144939 12.34375 19.11328125 C3.32633159 14.01414584 -6.15102457 14.95103029 -15.9375 17.3125 C-19.22457941 18.51052439 -22.3944118 19.83182647 -25.57421875 21.2890625 C-27.9375 22.3125 -27.9375 22.3125 -29.9375 22.3125 C-30.66447561 20.57016175 -31.36848244 18.81822655 -32.0625 17.0625 C-32.45695312 16.08796875 -32.85140625 15.1134375 -33.2578125 14.109375 C-33.9375 11.3125 -33.9375 11.3125 -33.40234375 9.1171875 C-31.37643499 6.62126791 -29.3535577 5.86675017 -26.375 4.6875 C-25.38371094 4.28273438 -24.39242188 3.87796875 -23.37109375 3.4609375 C-15.52303608 0.83598988 -8.26435264 -0.02867576 0 0 Z M-18.375 64.6875 C-22.03303979 70.83300685 -22.57044341 76.47832943 -20.9375 83.3125 C-19.43153154 87.69271684 -17.34031822 90.42281614 -13.3125 92.75 C-7.77205009 95.12447853 -2.32087349 95.29655307 3.453125 93.6171875 C11.05208294 90.54141881 16.69687821 86.14005821 20.26635742 78.70214844 C21.78156602 74.15419942 21.47423208 69.55249389 21.3125 64.8125 C21.29445313 63.79929687 21.27640625 62.78609375 21.2578125 61.7421875 C21.21106583 59.26461393 21.14556372 56.78907684 21.0625 54.3125 C6.92269136 53.82801417 -7.59232847 54.18130722 -18.375 64.6875 Z " fill="#534A42" transform="translate(1567.9375,1342.6875)"/>
<path d="M0 0 C9.26537485 6.43348128 14.31790249 15.16287627 17 26 C17.78637424 30.75723415 18.1223681 35.30938343 18.11352539 40.12866211 C18.11367142 40.80268066 18.11381744 41.47669922 18.1139679 42.17114258 C18.11327769 44.37324372 18.10552764 46.5752576 18.09765625 48.77734375 C18.09578889 50.31433567 18.09436649 51.85132819 18.09336853 53.38832092 C18.08956837 57.41437451 18.0797597 61.44039146 18.06866455 65.46643066 C18.0583964 69.58243311 18.05385938 73.69844153 18.04882812 77.81445312 C18.03813497 85.87632069 18.02055868 93.93815155 18 102 C11.4 102 4.8 102 -2 102 C-2.0093457 100.03844971 -2.01869141 98.07689941 -2.02832031 96.0559082 C-2.06405011 89.5258833 -2.11797458 82.99619973 -2.18390274 76.46641254 C-2.22316907 72.51299353 -2.25545833 68.5597903 -2.27099609 64.60620117 C-2.28630191 60.78037998 -2.32098762 56.9551529 -2.36830902 53.12959862 C-2.38298108 51.68065791 -2.39103273 50.23163231 -2.39188385 48.78261757 C-2.40409513 38.40351094 -2.81522104 27.36510124 -9.4375 18.875 C-15.9697686 14.09529127 -20.82395011 12.45493001 -29 13 C-35.49783517 14.35947615 -40.63970556 16.92620283 -45 22 C-48.59645464 27.77181778 -50.11845307 32.86153362 -50.20532227 39.67456055 C-50.22017166 40.68471222 -50.22017166 40.68471222 -50.23532104 41.715271 C-50.26688389 43.93905127 -50.29167275 46.1628529 -50.31640625 48.38671875 C-50.33698029 49.92943372 -50.35797688 51.4721431 -50.37937927 53.0148468 C-50.4345535 57.07377602 -50.48398325 61.13275573 -50.53222656 65.19177246 C-50.58247554 69.33427418 -50.63814387 73.47670266 -50.69335938 77.61914062 C-50.80088411 85.74603349 -50.90184083 93.87298862 -51 102 C-57.6 102 -64.2 102 -71 102 C-71.33 67.68 -71.66 33.36 -72 -2 C-66.06 -2 -60.12 -2 -54 -2 C-54 2.95 -54 7.9 -54 13 C-53.34 13 -52.68 13 -52 13 C-51.75378906 12.4225 -51.50757812 11.845 -51.25390625 11.25 C-46.87422101 3.39112556 -38.46960529 -0.8722187 -30.2421875 -3.578125 C-20.34473204 -5.44036401 -8.8396611 -5.0451442 0 0 Z " fill="#534A42" transform="translate(3055,1347)"/>
<path d="M0 0 C11.7200141 12.53768951 13.14647306 25.72786089 12.98046875 42.13671875 C12.97486147 43.78009145 12.97059673 45.42346922 12.96760559 47.06684875 C12.95624581 51.35601062 12.92685697 55.64485932 12.89349365 59.93389893 C12.86259963 64.32503017 12.84905927 68.71621287 12.83398438 73.10742188 C12.80197705 81.6967731 12.74928361 90.2858113 12.6875 98.875 C6.4175 98.875 0.1475 98.875 -6.3125 98.875 C-6.32708252 97.0398584 -6.34166504 95.2047168 -6.35668945 93.31396484 C-6.40870318 87.19509287 -6.47408191 81.07647287 -6.54821491 74.95783043 C-6.59261011 71.25446191 -6.63193025 67.55119564 -6.65893555 63.84765625 C-6.68528143 60.26180277 -6.72589335 56.67634958 -6.77568626 53.09074783 C-6.80006116 51.08275774 -6.81031789 49.07461178 -6.82014465 47.0664978 C-6.99077239 36.20301032 -7.28702791 23.96708049 -14.69921875 15.359375 C-18.98355333 11.41737224 -23.76088928 10.13536844 -29.375 9.5625 C-38.4599621 10.28352874 -44.66485819 13.32610395 -50.65625 20.16796875 C-55.88224274 28.70950877 -55.78248971 37.68304235 -55.82421875 47.41015625 C-55.84109247 48.89946446 -55.85924628 50.38875866 -55.87861633 51.8780365 C-55.92583072 55.7691917 -55.95582367 59.66029009 -55.98205566 63.55163574 C-56.01200659 67.53388687 -56.05848642 71.51594275 -56.10351562 75.49804688 C-56.18922326 83.29028371 -56.2551812 91.08249315 -56.3125 98.875 C-62.9125 98.875 -69.5125 98.875 -76.3125 98.875 C-76.6425 64.555 -76.9725 30.235 -77.3125 -5.125 C-71.3725 -5.125 -65.4325 -5.125 -59.3125 -5.125 C-58.6525 -0.505 -57.9925 4.115 -57.3125 8.875 C-56.3225 7.658125 -55.3325 6.44125 -54.3125 5.1875 C-50.71777826 1.10193272 -47.17024064 -1.69612968 -42.3125 -4.125 C-41.69375 -4.4446875 -41.075 -4.764375 -40.4375 -5.09375 C-27.04293187 -10.74458343 -11.75330763 -7.53985773 0 0 Z " fill="#534A42" transform="translate(1079.3125,1350.125)"/>
<path d="M0 0 C8.53263533 6.27914446 12.45908925 16.80086969 14.1484375 26.87109375 C14.23478515 29.29278327 14.26614808 31.71666776 14.26196289 34.13989258 C14.26210892 34.85263336 14.26225494 35.56537415 14.2624054 36.29971313 C14.26171182 38.64254865 14.2539455 40.98530347 14.24609375 43.328125 C14.2442276 44.95765642 14.24280463 46.5871884 14.24180603 48.21672058 C14.23799638 52.49597739 14.22817938 56.77520001 14.21710205 61.05444336 C14.20685452 65.42496274 14.20230126 69.79548768 14.19726562 74.16601562 C14.18655568 82.7343924 14.16897149 91.30273488 14.1484375 99.87109375 C7.8784375 99.87109375 1.6084375 99.87109375 -4.8515625 99.87109375 C-4.86614502 98.03595215 -4.88072754 96.20081055 -4.89575195 94.31005859 C-4.94776568 88.19118662 -5.01314441 82.07256662 -5.08727741 75.95392418 C-5.13167261 72.25055566 -5.17099275 68.54728939 -5.19799805 64.84375 C-5.22434393 61.25789652 -5.26495585 57.67244333 -5.31474876 54.08684158 C-5.33912366 52.07885149 -5.34938039 50.07070553 -5.35920715 48.06259155 C-5.52983489 37.19910407 -5.82609041 24.96317424 -13.23828125 16.35546875 C-17.52261583 12.41346599 -22.29995178 11.13146219 -27.9140625 10.55859375 C-36.9990246 11.27962249 -43.20392069 14.3221977 -49.1953125 21.1640625 C-54.42130524 29.70560252 -54.32155221 38.6791361 -54.36328125 48.40625 C-54.38015497 49.89555821 -54.39830878 51.38485241 -54.41767883 52.87413025 C-54.46489322 56.76528545 -54.49488617 60.65638384 -54.52111816 64.54772949 C-54.55106909 68.52998062 -54.59754892 72.5120365 -54.64257812 76.49414062 C-54.72828576 84.28637746 -54.7942437 92.0785869 -54.8515625 99.87109375 C-61.4515625 99.87109375 -68.0515625 99.87109375 -74.8515625 99.87109375 C-75.1815625 65.55109375 -75.5115625 31.23109375 -75.8515625 -4.12890625 C-69.9115625 -4.12890625 -63.9715625 -4.12890625 -57.8515625 -4.12890625 C-57.1915625 0.49109375 -56.5315625 5.11109375 -55.8515625 9.87109375 C-54.8615625 8.65421875 -53.8715625 7.43734375 -52.8515625 6.18359375 C-49.25684076 2.09802647 -45.70930314 -0.70003593 -40.8515625 -3.12890625 C-40.2328125 -3.44859375 -39.6140625 -3.76828125 -38.9765625 -4.09765625 C-26.3531024 -9.42317848 -11.31519313 -6.89892577 0 0 Z " fill="#534A42" transform="translate(1959.8515625,1349.12890625)"/>
<path d="M0 0 C8.53263533 6.27914446 12.45908925 16.80086969 14.1484375 26.87109375 C14.23478515 29.29278327 14.26614808 31.71666776 14.26196289 34.13989258 C14.26210892 34.85263336 14.26225494 35.56537415 14.2624054 36.29971313 C14.26171182 38.64254865 14.2539455 40.98530347 14.24609375 43.328125 C14.2442276 44.95765642 14.24280463 46.5871884 14.24180603 48.21672058 C14.23799638 52.49597739 14.22817938 56.77520001 14.21710205 61.05444336 C14.20685452 65.42496274 14.20230126 69.79548768 14.19726562 74.16601562 C14.18655568 82.7343924 14.16897149 91.30273488 14.1484375 99.87109375 C7.8784375 99.87109375 1.6084375 99.87109375 -4.8515625 99.87109375 C-4.87138184 98.05577148 -4.89120117 96.24044922 -4.91162109 94.37011719 C-4.97978896 88.32711465 -5.05659087 82.28427174 -5.13908958 76.24145126 C-5.18872944 72.58287996 -5.235058 68.92433312 -5.2734375 65.265625 C-5.31070395 61.72524628 -5.35716655 58.1850901 -5.40962601 54.64490509 C-5.436784 52.65785602 -5.45476811 50.67068823 -5.47250366 48.68353271 C-5.5919227 31.37869519 -5.5919227 31.37869519 -13.19921875 16.34375 C-17.62754187 12.26969273 -22.27550994 11.16833058 -28.1015625 10.49609375 C-37.09890384 11.39582788 -43.23865665 14.3618644 -49.1953125 21.1640625 C-54.42130524 29.70560252 -54.32155221 38.6791361 -54.36328125 48.40625 C-54.38015497 49.89555821 -54.39830878 51.38485241 -54.41767883 52.87413025 C-54.46489322 56.76528545 -54.49488617 60.65638384 -54.52111816 64.54772949 C-54.55106909 68.52998062 -54.59754892 72.5120365 -54.64257812 76.49414062 C-54.72828576 84.28637746 -54.7942437 92.0785869 -54.8515625 99.87109375 C-61.4515625 99.87109375 -68.0515625 99.87109375 -74.8515625 99.87109375 C-75.1815625 65.55109375 -75.5115625 31.23109375 -75.8515625 -4.12890625 C-69.9115625 -4.12890625 -63.9715625 -4.12890625 -57.8515625 -4.12890625 C-57.1915625 0.49109375 -56.5315625 5.11109375 -55.8515625 9.87109375 C-54.8615625 8.65421875 -53.8715625 7.43734375 -52.8515625 6.18359375 C-49.25684076 2.09802647 -45.70930314 -0.70003593 -40.8515625 -3.12890625 C-40.2328125 -3.44859375 -39.6140625 -3.76828125 -38.9765625 -4.09765625 C-26.3531024 -9.42317848 -11.31519313 -6.89892577 0 0 Z " fill="#534A42" transform="translate(2428.8515625,1349.12890625)"/>
<path d="M0 0 C6.6 0 13.2 0 20 0 C20 50.16 20 100.32 20 152 C13.4 152 6.8 152 0 152 C0 101.84 0 51.68 0 0 Z " fill="#534A42" transform="translate(0,1297)"/>
<path d="M0 0 C6.27 0 12.54 0 19 0 C19 50.16 19 100.32 19 152 C12.73 152 6.46 152 0 152 C0 101.84 0 51.68 0 0 Z " fill="#534A42" transform="translate(1490,1297)"/>
<path d="M0 0 C6.27 0 12.54 0 19 0 C19 50.16 19 100.32 19 152 C12.73 152 6.46 152 0 152 C0 101.84 0 51.68 0 0 Z " fill="#534A42" transform="translate(1333,1297)"/>
<path d="M0 0 C6.6 0 13.2 0 20 0 C20 34.32 20 68.64 20 104 C13.4 104 6.8 104 0 104 C0 69.68 0 35.36 0 0 Z " fill="#534A42" transform="translate(2583,1345)"/>
<path d="M0 0 C6.27 0 12.54 0 19 0 C19 34.32 19 68.64 19 104 C12.73 104 6.46 104 0 104 C0 69.68 0 35.36 0 0 Z " fill="#534A42" transform="translate(2743,1345)"/>
<path d="M0 0 C3.56681264 2.77418761 4.95804184 4.64472983 6.125 9.0625 C6.27458766 13.47533606 5.39075716 15.91140096 3.25 19.75 C0.18297822 22.64813292 -2.00719511 23.18170207 -6.1875 23.1875 C-9.85972661 23.07978135 -11.54208688 22.86456437 -14.8125 21.0625 C-17.94280283 17.32633211 -18.98917718 14.59355654 -18.625 9.75 C-17.87266406 5.05896414 -15.78920075 2.22666261 -11.9375 -0.5625 C-7.68084381 -1.90030623 -4.06253011 -1.8466046 0 0 Z " fill="#534A42" transform="translate(2758.75,1305.25)"/>
<path d="M0 0 C3.64950902 1.65886774 6.08559854 3.4583573 8 7 C9.03746782 11.59450035 9.40240857 13.87749189 7.8125 18.3125 C5.98904755 21.01623985 4.75537442 22.31777141 2 24 C-2.94714192 24.81837966 -7.50751715 24.70055317 -12.0625 22.5625 C-14.81681359 18.91969815 -15.8153372 15.55501571 -16 11 C-14.84272714 6.58789722 -13.65745966 4.58274833 -10.25 1.5625 C-6.43456971 -0.27184149 -4.18654012 -0.53283238 0 0 Z " fill="#534A42" transform="translate(2596,1304)"/>
</svg>
